<svg width="83" height="96" viewBox="0 0 83 96" fill="none" xmlns="http://www.w3.org/2000/svg">
<g filter="url(#filter0_d_11_2743)">
<rect x="4" width="75" height="88" rx="10" fill="white"/>
<rect x="24.5" y="12" width="34" height="34" rx="17" fill="#10B981"/>
<path d="M43.2972 34.2996C46.169 34.2996 48.4972 33.5833 48.4972 32.6996C48.4972 31.816 46.169 31.0996 43.2972 31.0996C40.4253 31.0996 38.0972 31.816 38.0972 32.6996C38.0972 33.5833 40.4253 34.2996 43.2972 34.2996Z" stroke="white" stroke-width="1.2" stroke-linecap="round" stroke-linejoin="round"/>
<path d="M48.4972 36.2998C48.4972 37.1838 46.1692 37.8998 43.2972 37.8998C40.4252 37.8998 38.0972 37.1838 38.0972 36.2998" stroke="white" stroke-width="1.2" stroke-linecap="round" stroke-linejoin="round"/>
<path d="M48.4972 32.7002V39.7402C48.4972 40.7122 46.1692 41.5002 43.2972 41.5002C40.4252 41.5002 38.0972 40.7122 38.0972 39.7402V32.7002" stroke="white" stroke-width="1.2" stroke-linecap="round" stroke-linejoin="round"/>
<path d="M37.7 28.7C40.5719 28.7 42.9 27.9837 42.9 27.1C42.9 26.2163 40.5719 25.5 37.7 25.5C34.8281 25.5 32.5 26.2163 32.5 27.1C32.5 27.9837 34.8281 28.7 37.7 28.7Z" stroke="white" stroke-width="1.2" stroke-linecap="round" stroke-linejoin="round"/>
<path d="M35.7 32.6996C34.1864 32.5156 32.796 32.0396 32.5 31.0996M35.7 36.6996C34.1864 36.5156 32.796 36.0396 32.5 35.0996" stroke="white" stroke-width="1.2" stroke-linecap="round" stroke-linejoin="round"/>
<path d="M35.7 40.6996C34.1864 40.5156 32.796 40.0388 32.5 39.0996V27.0996M42.9 28.6996V27.0996" stroke="white" stroke-width="1.2" stroke-linecap="round" stroke-linejoin="round"/>
<path d="M50.5 22.2143H46.2143V26.5H44.7857V22.2143H40.5V20.7857H44.7857V16.5H46.2143V20.7857H50.5V22.2143Z" fill="white"/>
<path d="M15.9492 70.1143H12.2507L11.5694 72H10.4015L13.4673 63.5689H14.7448L17.7985 72H16.6305L15.9492 70.1143ZM15.6329 69.214L14.1 64.9315L12.5671 69.214H15.6329ZM18.721 68.6422C18.721 67.9608 18.8589 67.3647 19.1347 66.8537C19.4104 66.3346 19.7876 65.9332 20.2661 65.6493C20.7528 65.3654 21.2962 65.2235 21.8964 65.2235C22.4155 65.2235 22.8981 65.3451 23.3441 65.5885C23.7902 65.8237 24.1309 66.1359 24.3661 66.5252V62.9971H25.4854V72H24.3661V70.7469C24.1471 71.1443 23.8227 71.4728 23.3928 71.7323C22.9629 71.9838 22.4601 72.1095 21.8842 72.1095C21.2921 72.1095 20.7528 71.9635 20.2661 71.6715C19.7876 71.3795 19.4104 70.9699 19.1347 70.4427C18.8589 69.9155 18.721 69.3153 18.721 68.6422ZM24.3661 68.6543C24.3661 68.1515 24.2647 67.7135 24.0619 67.3404C23.8592 66.9673 23.5834 66.6834 23.2346 66.4887C22.894 66.286 22.5168 66.1846 22.1032 66.1846C21.6896 66.1846 21.3124 66.2819 20.9717 66.4766C20.6311 66.6712 20.3594 66.9551 20.1566 67.3282C19.9539 67.7013 19.8525 68.1393 19.8525 68.6422C19.8525 69.1531 19.9539 69.5992 20.1566 69.9804C20.3594 70.3535 20.6311 70.6414 20.9717 70.8442C21.3124 71.0389 21.6896 71.1362 22.1032 71.1362C22.5168 71.1362 22.894 71.0389 23.2346 70.8442C23.5834 70.6414 23.8592 70.3535 24.0619 69.9804C24.2647 69.5992 24.3661 69.1572 24.3661 68.6543ZM26.9427 68.6422C26.9427 67.9608 27.0805 67.3647 27.3563 66.8537C27.6321 66.3346 28.0092 65.9332 28.4878 65.6493C28.9744 65.3654 29.5178 65.2235 30.118 65.2235C30.6371 65.2235 31.1197 65.3451 31.5658 65.5885C32.0119 65.8237 32.3525 66.1359 32.5877 66.5252V62.9971H33.707V72H32.5877V70.7469C32.3687 71.1443 32.0443 71.4728 31.6144 71.7323C31.1846 71.9838 30.6817 72.1095 30.1058 72.1095C29.5138 72.1095 28.9744 71.9635 28.4878 71.6715C28.0092 71.3795 27.6321 70.9699 27.3563 70.4427C27.0805 69.9155 26.9427 69.3153 26.9427 68.6422ZM32.5877 68.6543C32.5877 68.1515 32.4863 67.7135 32.2836 67.3404C32.0808 66.9673 31.805 66.6834 31.4563 66.4887C31.1156 66.286 30.7385 66.1846 30.3248 66.1846C29.9112 66.1846 29.534 66.2819 29.1934 66.4766C28.8527 66.6712 28.581 66.9551 28.3783 67.3282C28.1755 67.7013 28.0741 68.1393 28.0741 68.6422C28.0741 69.1531 28.1755 69.5992 28.3783 69.9804C28.581 70.3535 28.8527 70.6414 29.1934 70.8442C29.534 71.0389 29.9112 71.1362 30.3248 71.1362C30.7385 71.1362 31.1156 71.0389 31.4563 70.8442C31.805 70.6414 32.0808 70.3535 32.2836 69.9804C32.4863 69.5992 32.5877 69.1572 32.5877 68.6543ZM41.5345 66.2454H40.1354V72H39.0283V66.2454H38.1645V65.333H39.0283V64.8585C39.0283 64.1123 39.2189 63.5689 39.6001 63.2282C39.9894 62.8795 40.6099 62.7051 41.4615 62.7051V63.6297C40.9748 63.6297 40.6301 63.727 40.4274 63.9217C40.2327 64.1082 40.1354 64.4205 40.1354 64.8585V65.333H41.5345V66.2454ZM48.7381 65.333V72H47.631V71.0145C47.4201 71.3552 47.124 71.6229 46.7428 71.8175C46.3697 72.0041 45.9561 72.0973 45.5019 72.0973C44.9828 72.0973 44.5164 71.9919 44.1028 71.781C43.6891 71.562 43.3606 71.2376 43.1173 70.8077C42.8821 70.3779 42.7645 69.8547 42.7645 69.2383V65.333H43.8595V69.0923C43.8595 69.7493 44.0257 70.2562 44.3583 70.6131C44.6908 70.9618 45.145 71.1362 45.7209 71.1362C46.313 71.1362 46.7793 70.9537 47.12 70.5887C47.4606 70.2237 47.631 69.6925 47.631 68.995V65.333H48.7381ZM53.8557 65.2113C54.6668 65.2113 55.3238 65.4587 55.8266 65.9534C56.3295 66.4401 56.5809 67.1457 56.5809 68.0703V72H55.486V68.2285C55.486 67.5634 55.3197 67.0565 54.9872 66.7077C54.6546 66.3509 54.2004 66.1724 53.6246 66.1724C53.0406 66.1724 52.5742 66.3549 52.2255 66.7199C51.8848 67.0849 51.7145 67.6161 51.7145 68.3137V72H50.6074V65.333H51.7145V66.2819C51.9335 65.9413 52.2295 65.6777 52.6026 65.4911C52.9838 65.3046 53.4015 65.2113 53.8557 65.2113ZM57.9758 68.6422C57.9758 67.9608 58.1136 67.3647 58.3894 66.8537C58.6652 66.3346 59.0423 65.9332 59.5209 65.6493C60.0075 65.3654 60.5509 65.2235 61.1511 65.2235C61.6702 65.2235 62.1528 65.3451 62.5989 65.5885C63.045 65.8237 63.3856 66.1359 63.6208 66.5252V62.9971H64.7401V72H63.6208V70.7469C63.4019 71.1443 63.0774 71.4728 62.6476 71.7323C62.2177 71.9838 61.7148 72.1095 61.139 72.1095C60.5469 72.1095 60.0075 71.9635 59.5209 71.6715C59.0423 71.3795 58.6652 70.9699 58.3894 70.4427C58.1136 69.9155 57.9758 69.3153 57.9758 68.6422ZM63.6208 68.6543C63.6208 68.1515 63.5195 67.7135 63.3167 67.3404C63.1139 66.9673 62.8382 66.6834 62.4894 66.4887C62.1487 66.286 61.7716 66.1846 61.3579 66.1846C60.9443 66.1846 60.5671 66.2819 60.2265 66.4766C59.8858 66.6712 59.6141 66.9551 59.4114 67.3282C59.2086 67.7013 59.1072 68.1393 59.1072 68.6422C59.1072 69.1531 59.2086 69.5992 59.4114 69.9804C59.6141 70.3535 59.8858 70.6414 60.2265 70.8442C60.5671 71.0389 60.9443 71.1362 61.3579 71.1362C61.7716 71.1362 62.1487 71.0389 62.4894 70.8442C62.8382 70.6414 63.1139 70.3535 63.3167 69.9804C63.5195 69.5992 63.6208 69.1572 63.6208 68.6543ZM68.9713 72.1095C68.4603 72.1095 68.002 72.0243 67.5965 71.854C67.191 71.6756 66.8706 71.4322 66.6354 71.124C66.4002 70.8077 66.2704 70.4468 66.2461 70.0413H67.3897C67.4221 70.3738 67.5762 70.6455 67.852 70.8564C68.1359 71.0673 68.5049 71.1727 68.9591 71.1727C69.3809 71.1727 69.7134 71.0794 69.9567 70.8929C70.2001 70.7063 70.3217 70.4711 70.3217 70.1872C70.3217 69.8953 70.1919 69.6803 69.9324 69.5424C69.6729 69.3965 69.2714 69.2545 68.728 69.1166C68.2332 68.9869 67.8277 68.8571 67.5113 68.7273C67.2031 68.5894 66.9355 68.3907 66.7084 68.1312C66.4894 67.8635 66.3799 67.5148 66.3799 67.0849C66.3799 66.7442 66.4813 66.432 66.684 66.1481C66.8868 65.8642 67.1747 65.6412 67.5478 65.479C67.9209 65.3086 68.3468 65.2235 68.8253 65.2235C69.5634 65.2235 70.1595 65.41 70.6137 65.7831C71.0679 66.1562 71.3112 66.6672 71.3437 67.316H70.2366C70.2122 66.9673 70.0703 66.6875 69.8107 66.4766C69.5593 66.2657 69.2187 66.1603 68.7888 66.1603C68.3914 66.1603 68.075 66.2454 67.8398 66.4158C67.6046 66.5861 67.487 66.8091 67.487 67.0849C67.487 67.3039 67.556 67.4864 67.6938 67.6324C67.8398 67.7702 68.0183 67.8838 68.2291 67.973C68.4481 68.0541 68.7482 68.1474 69.1294 68.2528C69.608 68.3826 69.9973 68.5124 70.2974 68.6422C70.5975 68.7638 70.853 68.9504 71.0639 69.2018C71.2828 69.4532 71.3964 69.7817 71.4045 70.1872C71.4045 70.5522 71.3031 70.8807 71.1003 71.1727C70.8976 71.4647 70.6096 71.6958 70.2366 71.8662C69.8716 72.0284 69.4498 72.1095 68.9713 72.1095Z" fill="black"/>
</g>
<defs>
<filter id="filter0_d_11_2743" x="0" y="0" width="83" height="96" filterUnits="userSpaceOnUse" color-interpolation-filters="sRGB">
<feFlood flood-opacity="0" result="BackgroundImageFix"/>
<feColorMatrix in="SourceAlpha" type="matrix" values="0 0 0 0 0 0 0 0 0 0 0 0 0 0 0 0 0 0 127 0" result="hardAlpha"/>
<feOffset dy="4"/>
<feGaussianBlur stdDeviation="2"/>
<feComposite in2="hardAlpha" operator="out"/>
<feColorMatrix type="matrix" values="0 0 0 0 0 0 0 0 0 0 0 0 0 0 0 0 0 0 0.25 0"/>
<feBlend mode="normal" in2="BackgroundImageFix" result="effect1_dropShadow_11_2743"/>
<feBlend mode="normal" in="SourceGraphic" in2="effect1_dropShadow_11_2743" result="shape"/>
</filter>
</defs>
</svg>

