<svg width="76" height="76" viewBox="0 0 76 76" fill="none" xmlns="http://www.w3.org/2000/svg">
<g filter="url(#filter0_d_3_3523)">
<rect x="6.26562" y="3.13269" width="62.6549" height="62.6549" rx="31.3274" fill="white" shape-rendering="crispEdges"/>
<mask id="mask0_3_3523" style="mask-type:luminance" maskUnits="userSpaceOnUse" x="9" y="6" width="57" height="57">
<path d="M37.5931 62.6548C53.1646 62.6548 65.7878 50.0316 65.7878 34.4601C65.7878 18.8886 53.1646 6.26538 37.5931 6.26538C22.0216 6.26538 9.39844 18.8886 9.39844 34.4601C9.39844 50.0316 22.0216 62.6548 37.5931 62.6548Z" fill="white"/>
</mask>
<g mask="url(#mask0_3_3523)">
<path d="M37.5931 6.26538H65.7878V13.3141L62.2635 16.8384L65.7878 20.3627V27.4114L62.2635 30.9357L65.7878 34.4601V41.5087L62.2635 45.0331L65.7878 48.5574V55.6061L37.5931 59.1304L9.39844 55.6061V48.5574L12.9228 45.0331L9.39844 41.5087V34.4601L37.5931 6.26538Z" fill="#EEEEEE"/>
<path d="M34.0688 13.3141H65.7878V20.3628H34.0688V13.3141ZM34.0688 27.4114H65.7878V34.4601H37.5931L34.0688 27.4114ZM9.39844 41.5088H65.7878V48.5574H9.39844V41.5088ZM9.39844 55.6061H65.7878V62.6548H9.39844V55.6061Z" fill="#D80027"/>
<path d="M9.39844 6.26538H37.5931V34.4601H9.39844V6.26538Z" fill="#0052B4"/>
<path d="M29.9925 33.0283L36.2702 28.5128H28.5607L34.8384 33.0283L32.4154 25.6492L29.9925 33.0283ZM21.0715 33.0283L27.3492 28.5128H19.6397L25.9174 33.0283L23.4945 25.6492L21.0715 33.0283ZM12.1505 33.0283L18.4282 28.5128H10.7188L16.9965 33.0283L14.5735 25.6492L12.1505 33.0283ZM29.9925 24.1073L36.2702 19.5918H28.5607L34.8384 24.1073L32.4154 16.7283L29.9925 24.1073ZM21.0715 24.1073L27.3492 19.5918H19.6397L25.9174 24.1073L23.4945 16.7283L21.0715 24.1073ZM12.1505 24.1073L18.4282 19.5918H10.7188L16.9965 24.1073L14.5735 16.7283L12.1505 24.1073ZM29.9925 15.0762L36.2702 10.5607H28.5607L34.8384 15.0762L32.4154 7.69714L29.9925 15.0762ZM21.0715 15.0762L27.3492 10.5607H19.6397L25.9174 15.0762L23.4945 7.69714L21.0715 15.0762ZM12.1505 15.0762L18.4282 10.5607H10.7188L16.9965 15.0762L14.5735 7.69714L12.1505 15.0762Z" fill="#EEEEEE"/>
</g>
</g>
<defs>
<filter id="filter0_d_3_3523" x="0.000138283" y="-5.29289e-05" width="75.1853" height="75.1859" filterUnits="userSpaceOnUse" color-interpolation-filters="sRGB">
<feFlood flood-opacity="0" result="BackgroundImageFix"/>
<feColorMatrix in="SourceAlpha" type="matrix" values="0 0 0 0 0 0 0 0 0 0 0 0 0 0 0 0 0 0 127 0" result="hardAlpha"/>
<feOffset dy="3.13274"/>
<feGaussianBlur stdDeviation="3.13274"/>
<feComposite in2="hardAlpha" operator="out"/>
<feColorMatrix type="matrix" values="0 0 0 0 0 0 0 0 0 0 0 0 0 0 0 0 0 0 0.1 0"/>
<feBlend mode="normal" in2="BackgroundImageFix" result="effect1_dropShadow_3_3523"/>
<feBlend mode="normal" in="SourceGraphic" in2="effect1_dropShadow_3_3523" result="shape"/>
</filter>
</defs>
</svg>
