<svg width="57" height="57" viewBox="0 0 57 57" fill="none" xmlns="http://www.w3.org/2000/svg">
<mask id="mask0_3_3507" style="mask-type:luminance" maskUnits="userSpaceOnUse" x="0" y="0" width="57" height="57">
<path d="M28.1947 56.3894C43.7662 56.3894 56.3894 43.7662 56.3894 28.1947C56.3894 12.6232 43.7662 0 28.1947 0C12.6232 0 0 12.6232 0 28.1947C0 43.7662 12.6232 56.3894 28.1947 56.3894Z" fill="white"/>
</mask>
<g mask="url(#mask0_3_3507)">
<path d="M0 0L0.881084 2.42298L0 4.9561V7.48921L3.52434 13.4365L0 19.3839V22.9082L3.52434 28.1947L0 33.4812V37.0055L3.52434 42.9529L0 48.9002V56.3894L2.42298 55.5083L4.9561 56.3894H7.48921L13.4365 52.865L19.3839 56.3894H22.9082L28.1947 52.865L33.4812 56.3894H37.0055L42.9529 52.865L48.9002 56.3894H56.3894L55.5083 53.9664L56.3894 51.4333V48.9002L52.865 42.9529L56.3894 37.0055V33.4812L52.865 28.1947L56.3894 22.9082V19.3839L52.865 13.4365L56.3894 7.48921V0L53.9664 0.881084L51.4333 0H48.9002L42.9529 3.52434L37.0055 0H33.4812L28.1947 3.52434L22.9082 0H19.3839L13.4365 3.52434L7.48921 0H0Z" fill="#EEEEEE"/>
<path d="M37.0055 0V11.8946L48.9002 0H37.0055ZM56.3894 7.48921L44.4947 19.3839H56.3894V7.48921ZM0 19.3839H11.8946L0 7.48921V19.3839ZM7.48921 0L19.3839 11.8946V0H7.48921ZM19.3839 56.3894V44.4947L7.48921 56.3894H19.3839ZM0 48.9002L11.8946 37.0055H0V48.9002ZM56.3894 37.0055H44.4947L56.3894 48.9002V37.0055ZM48.9002 56.3894L37.0055 44.4947V56.3894H48.9002Z" fill="#0052B4"/>
<path d="M0 0V4.9561L14.4278 19.3839H19.3839L0 0ZM22.9082 0V22.9082H0V33.4812H22.9082V56.3894H33.4812V33.4812H56.3894V22.9082H33.4812V0H22.9082ZM51.4333 0L37.0055 14.4278V19.3839L56.3894 0H51.4333ZM19.3839 37.0055L0 56.3894H4.9561L19.3839 41.9616V37.0055ZM37.0055 37.0055L56.3894 56.3894V51.4333L41.9616 37.0055H37.0055Z" fill="#D80027"/>
</g>
</svg>
