<svg width="79" height="88" viewBox="0 0 79 88" fill="none" xmlns="http://www.w3.org/2000/svg">
<rect width="79" height="88" rx="10" fill="white"/>
<rect x="22.5" y="12" width="34" height="34" rx="17" fill="#10B981"/>
<path d="M39.5 19C33.98 19 29.5 23.48 29.5 29C29.5 34.52 33.98 39 39.5 39C45.02 39 49.5 34.52 49.5 29C49.5 23.48 45.02 19 39.5 19ZM39.5 37C35.09 37 31.5 33.41 31.5 29C31.5 24.59 35.09 21 39.5 21C43.91 21 47.5 24.59 47.5 29C47.5 33.41 43.91 37 39.5 37ZM34 34.5L41.51 31.01L45 23.5L37.49 26.99L34 34.5ZM39.5 27.9C40.11 27.9 40.6 28.39 40.6 29C40.6 29.61 40.11 30.1 39.5 30.1C38.89 30.1 38.4 29.61 38.4 29C38.4 28.39 38.89 27.9 39.5 27.9Z" fill="white"/>
<path d="M18.0439 64.4205V67.2552H21.1341V68.1677H18.0439V71.0875H21.4991V72H16.9368V63.508H21.4991V64.4205H18.0439ZM26.6538 72L25.0722 69.5181L23.5515 72H22.3957L24.5491 68.6908L22.3957 65.333H23.6488L25.2304 67.8027L26.739 65.333H27.8948L25.7535 68.63L27.9069 72H26.6538ZM30.1031 66.5617C30.3221 66.1805 30.6465 65.8642 31.0764 65.6128C31.5144 65.3532 32.0213 65.2235 32.5972 65.2235C33.1892 65.2235 33.7245 65.3654 34.2031 65.6493C34.6897 65.9332 35.0709 66.3346 35.3467 66.8537C35.6225 67.3647 35.7603 67.9608 35.7603 68.6422C35.7603 69.3153 35.6225 69.9155 35.3467 70.4427C35.0709 70.9699 34.6897 71.3795 34.2031 71.6715C33.7245 71.9635 33.1892 72.1095 32.5972 72.1095C32.0294 72.1095 31.5265 71.9838 31.0886 71.7323C30.6587 71.4728 30.3302 71.1524 30.1031 70.7712V75.1632H28.996V65.333H30.1031V66.5617ZM34.6289 68.6422C34.6289 68.1393 34.5275 67.7013 34.3247 67.3282C34.122 66.9551 33.8462 66.6712 33.4974 66.4766C33.1568 66.2819 32.7796 66.1846 32.366 66.1846C31.9605 66.1846 31.5833 66.286 31.2345 66.4887C30.8939 66.6834 30.6181 66.9713 30.4073 67.3525C30.2045 67.7256 30.1031 68.1596 30.1031 68.6543C30.1031 69.1572 30.2045 69.5992 30.4073 69.9804C30.6181 70.3535 30.8939 70.6414 31.2345 70.8442C31.5833 71.0389 31.9605 71.1362 32.366 71.1362C32.7796 71.1362 33.1568 71.0389 33.4974 70.8442C33.8462 70.6414 34.122 70.3535 34.3247 69.9804C34.5275 69.5992 34.6289 69.1531 34.6289 68.6422ZM38.3247 62.9971V72H37.2176V62.9971H38.3247ZM43.1193 72.1095C42.4948 72.1095 41.927 71.9676 41.4161 71.6837C40.9132 71.3998 40.5158 70.9983 40.2238 70.4792C39.9399 69.952 39.798 69.3437 39.798 68.6543C39.798 67.973 39.944 67.3728 40.236 66.8537C40.5361 66.3265 40.9416 65.9251 41.4526 65.6493C41.9635 65.3654 42.5354 65.2235 43.168 65.2235C43.8006 65.2235 44.3724 65.3654 44.8834 65.6493C45.3944 65.9251 45.7959 66.3225 46.0879 66.8416C46.388 67.3607 46.538 67.9649 46.538 68.6543C46.538 69.3437 46.3839 69.952 46.0757 70.4792C45.7756 70.9983 45.366 71.3998 44.8469 71.6837C44.3278 71.9676 43.752 72.1095 43.1193 72.1095ZM43.1193 71.1362C43.5168 71.1362 43.8898 71.0429 44.2386 70.8564C44.5874 70.6698 44.8672 70.39 45.0781 70.0169C45.2971 69.6438 45.4066 69.1896 45.4066 68.6543C45.4066 68.119 45.3011 67.6648 45.0902 67.2917C44.8794 66.9186 44.6036 66.6429 44.2629 66.4644C43.9223 66.2779 43.5533 66.1846 43.1558 66.1846C42.7503 66.1846 42.3772 66.2779 42.0365 66.4644C41.704 66.6429 41.4363 66.9186 41.2336 67.2917C41.0308 67.6648 40.9294 68.119 40.9294 68.6543C40.9294 69.1977 41.0268 69.656 41.2214 70.0291C41.4242 70.4022 41.6918 70.682 42.0244 70.8686C42.3569 71.047 42.7219 71.1362 43.1193 71.1362ZM49.1008 66.4158C49.2954 66.0345 49.5712 65.7385 49.9281 65.5276C50.2931 65.3167 50.7351 65.2113 51.2542 65.2113V66.3549H50.9622C49.7213 66.3549 49.1008 67.0281 49.1008 68.3745V72H47.9937V65.333H49.1008V66.4158ZM58.6153 68.411C58.6153 68.6219 58.6031 68.8449 58.5788 69.0801H53.25C53.2906 69.7371 53.5136 70.2521 53.9191 70.6252C54.3328 70.9902 54.8316 71.1727 55.4156 71.1727C55.8941 71.1727 56.2915 71.0632 56.6078 70.8442C56.9323 70.6171 57.1594 70.317 57.2892 69.9439H58.4814C58.303 70.5847 57.9461 71.1078 57.4108 71.5134C56.8755 71.9108 56.2104 72.1095 55.4156 72.1095C54.7829 72.1095 54.2152 71.9676 53.7123 71.6837C53.2176 71.3998 52.8282 70.9983 52.5444 70.4792C52.2605 69.952 52.1185 69.3437 52.1185 68.6543C52.1185 67.9649 52.2564 67.3607 52.5322 66.8416C52.808 66.3225 53.1932 65.9251 53.688 65.6493C54.1908 65.3654 54.7667 65.2235 55.4156 65.2235C56.0482 65.2235 56.6078 65.3614 57.0945 65.6371C57.5811 65.9129 57.9542 66.2941 58.2138 66.7807C58.4814 67.2593 58.6153 67.8027 58.6153 68.411ZM57.4716 68.1798C57.4716 67.7581 57.3784 67.3972 57.1918 67.0971C57.0053 66.7888 56.7498 66.5577 56.4254 66.4036C56.109 66.2414 55.7562 66.1603 55.3669 66.1603C54.8073 66.1603 54.3287 66.3387 53.9313 66.6956C53.542 67.0524 53.3189 67.5472 53.2622 68.1798H57.4716Z" fill="black"/>
</svg>

