<svg width="51" height="51" viewBox="0 0 51 51" fill="none" xmlns="http://www.w3.org/2000/svg">
<rect width="50.5386" height="50.5386" rx="25.2693" fill="#1E3A8A"/>
<path d="M20.9684 33.0652C20.5248 33.0652 20.1453 32.9074 19.8297 32.5918C19.5141 32.2762 19.356 31.8964 19.3555 31.4523V23.3876C19.3555 22.944 19.5135 22.5645 19.8297 22.2489C20.1458 21.9333 20.5254 21.7752 20.9684 21.7747H21.7749V20.1617C21.7749 19.0461 22.1682 18.0953 22.9547 17.3093C23.7413 16.5232 24.6921 16.1299 25.8072 16.1294C26.9223 16.1289 27.8734 16.5221 28.6605 17.3093C29.4476 18.0964 29.8406 19.0472 29.8395 20.1617V21.7747H30.646C31.0896 21.7747 31.4694 21.9327 31.7855 22.2489C32.1017 22.565 32.2595 22.9446 32.2589 23.3876V31.4523C32.2589 31.8958 32.1011 32.2757 31.7855 32.5918C31.4699 32.9079 31.0901 33.0657 30.646 33.0652H20.9684ZM25.8072 29.0329C26.2508 29.0329 26.6306 28.8751 26.9467 28.5595C27.2629 28.2439 27.4207 27.864 27.4201 27.4199C27.4196 26.9758 27.2618 26.5963 26.9467 26.2812C26.6317 25.9661 26.2518 25.8081 25.8072 25.807C25.3626 25.8059 24.983 25.964 24.6685 26.2812C24.354 26.5984 24.1959 26.978 24.1943 27.4199C24.1927 27.8619 24.3507 28.2417 24.6685 28.5595C24.9862 28.8772 25.3658 29.035 25.8072 29.0329ZM23.3878 21.7747H28.2266V20.1617C28.2266 19.4897 27.9914 18.9184 27.5209 18.448C27.0505 17.9775 26.4793 17.7423 25.8072 17.7423C25.1351 17.7423 24.5639 17.9775 24.0935 18.448C23.623 18.9184 23.3878 19.4897 23.3878 20.1617V21.7747Z" fill="white"/>
</svg>
