<svg width="51" height="51" viewBox="0 0 51 51" fill="none" xmlns="http://www.w3.org/2000/svg">
<rect width="50.5386" height="50.5386" rx="25.2693" fill="#6D28D9"/>
<path d="M17.2051 28.896L20.1354 31.3384C20.5664 31.6972 21.1094 31.8936 21.6702 31.8935H29.3953C29.9469 31.8935 30.3941 31.4463 30.3941 30.8948C30.3941 29.7917 29.4996 28.896 28.3953 28.896H23.025M26.4757 17.2058C26.3167 17.2058 26.1643 17.269 26.0518 17.3814C25.9394 17.4938 25.8762 17.6463 25.8762 17.8053V19.4923H24.1905C24.0315 19.4923 23.879 19.5554 23.7665 19.6679C23.6541 19.7803 23.591 19.9328 23.591 20.0918V22.0402C23.591 22.1992 23.6541 22.3516 23.7665 22.4641C23.879 22.5765 24.0315 22.6397 24.1905 22.6397H25.8762V24.3255C25.8762 24.4844 25.9394 24.6369 26.0518 24.7494C26.1643 24.8618 26.3167 24.925 26.4757 24.925H28.4241C28.5831 24.925 28.7356 24.8618 28.848 24.7494C28.9605 24.6369 29.0236 24.4844 29.0236 24.3255V22.6397H30.7094C30.8684 22.6397 31.0209 22.5765 31.1333 22.4641C31.2458 22.3516 31.3089 22.1992 31.3089 22.0402V20.0918C31.3089 19.9328 31.2458 19.7803 31.1333 19.6679C31.0209 19.5554 30.8684 19.4923 30.7094 19.4923H29.0236V17.8041C29.0236 17.6451 28.9605 17.4926 28.848 17.3802C28.7356 17.2678 28.5831 17.2046 28.4241 17.2046L26.4757 17.2058Z" stroke="white" stroke-width="1.199" stroke-linecap="round" stroke-linejoin="round"/>
<path d="M20.8021 27.6969L21.7013 28.5962C21.8194 28.7143 21.9596 28.808 22.1139 28.8719C22.2682 28.9358 22.4336 28.9687 22.6006 28.9687C22.7676 28.9687 22.933 28.9358 23.0872 28.8719C23.2415 28.808 23.3817 28.7143 23.4998 28.5962C23.6179 28.4781 23.7116 28.3379 23.7755 28.1836C23.8394 28.0293 23.8723 27.8639 23.8723 27.6969C23.8723 27.5299 23.8394 27.3646 23.7755 27.2103C23.7116 27.056 23.6179 26.9158 23.4998 26.7977L22.1042 25.4021C21.6546 24.9523 21.0447 24.6996 20.4088 24.6994H17.2051" stroke="white" stroke-width="1.199" stroke-linecap="round" stroke-linejoin="round"/>
</svg>
