<svg width="51" height="51" viewBox="0 0 51 51" fill="none" xmlns="http://www.w3.org/2000/svg">
<rect width="50.5386" height="50.5386" rx="25.2693" fill="#14B8A6"/>
<path opacity="0.5" d="M32.2783 23.5542V24.6747C32.2783 28.1961 32.2783 29.9568 31.1741 31.0505C30.0715 32.1449 28.2944 32.1449 24.7417 32.1449C21.1889 32.1449 19.4125 32.1449 18.3084 31.0505C17.2051 29.9576 17.2051 28.1961 17.2051 24.6747C17.2051 21.1533 17.2051 19.3925 18.3084 18.2982C19.4133 17.2045 21.1889 17.2045 24.7417 17.2045H25.8722" stroke="white" stroke-width="1.13049" stroke-linecap="round"/>
<path d="M30.0168 21.6866C31.2655 21.6866 32.2778 20.6832 32.2778 19.4455C32.2778 18.2078 31.2655 17.2045 30.0168 17.2045C28.7681 17.2045 27.7559 18.2078 27.7559 19.4455C27.7559 20.6832 28.7681 21.6866 30.0168 21.6866Z" stroke="white" stroke-width="1.13049"/>
<path d="M20.9727 26.1679L22.7008 24.455C22.8421 24.3149 23.0338 24.2362 23.2336 24.2362C23.4335 24.2362 23.6251 24.3149 23.7665 24.455L24.9618 25.6397C25.1031 25.7798 25.2948 25.8584 25.4946 25.8584C25.6945 25.8584 25.8861 25.7798 26.0274 25.6397L28.5092 23.1798M28.5092 23.1798V25.0473M28.5092 23.1798H26.6251" stroke="white" stroke-width="1.13049" stroke-linecap="round" stroke-linejoin="round"/>
</svg>
