<svg width="80" height="88" viewBox="0 0 80 88" fill="none" xmlns="http://www.w3.org/2000/svg">
<rect width="80" height="88" rx="10" fill="white"/>
<rect x="23" y="12" width="34" height="34" rx="17" fill="#10B981"/>
<path d="M44 36C43.5333 36 43.0793 35.9543 42.638 35.863C42.1967 35.7717 41.7673 35.6423 41.35 35.475C42.3333 34.575 43.1043 33.571 43.663 32.463C44.2217 31.355 44.5007 30.2007 44.5 29C44.4993 27.7993 44.2203 26.645 43.663 25.537C43.1057 24.429 42.3347 23.425 41.35 22.525C41.7667 22.3583 42.196 22.2293 42.638 22.138C43.08 22.0467 43.534 22.0007 44 22C45.95 22 47.6043 22.6793 48.963 24.038C50.3217 25.3967 51.0007 27.0507 51 29C50.9993 30.9493 50.3203 32.6037 48.963 33.963C47.6057 35.3223 45.9513 36.0013 44 36ZM40 34.75C39.0833 34.1167 38.3543 33.3 37.813 32.3C37.2717 31.3 37.0007 30.2 37 29C36.9993 27.8 37.2703 26.7 37.813 25.7C38.3557 24.7 39.0847 23.8833 40 23.25C40.9167 23.8833 41.646 24.7 42.188 25.7C42.73 26.7 43.0007 27.8 43 29C42.9993 30.2 42.7287 31.3 42.188 32.3C41.6473 33.3 40.918 34.1167 40 34.75ZM36 36C34.05 36 32.396 35.321 31.038 33.963C29.68 32.605 29.0007 30.9507 29 29C28.9993 27.0493 29.6787 25.3953 31.038 24.038C32.3973 22.6807 34.0513 22.0013 36 22C36.4667 22 36.921 22.046 37.363 22.138C37.805 22.23 38.234 22.359 38.65 22.525C37.6667 23.425 36.896 24.4293 36.338 25.538C35.78 26.6467 35.5007 27.8007 35.5 29C35.5 30.3167 35.771 31.5377 36.313 32.663C36.855 33.7883 37.6007 34.7423 38.55 35.525C38.15 35.675 37.7377 35.7917 37.313 35.875C36.8883 35.9583 36.4507 36 36 36Z" fill="white"/>
<path d="M8.2071 63.5202V69.7858C8.2071 70.4833 7.99217 71.0429 7.5623 71.4647C7.13243 71.8783 6.56467 72.0852 5.85904 72.0852C5.14529 72.0852 4.57348 71.8743 4.14362 71.4525C3.71375 71.0227 3.49881 70.4387 3.49881 69.7006H4.60593C4.61404 70.1143 4.71948 70.4508 4.92225 70.7104C5.13313 70.9699 5.44539 71.0997 5.85904 71.0997C6.27269 71.0997 6.58089 70.978 6.78366 70.7347C6.98643 70.4833 7.08782 70.167 7.08782 69.7858V63.5202H8.2071ZM13.2959 72.1095C12.6713 72.1095 12.1036 71.9676 11.5926 71.6837C11.0897 71.3998 10.6923 70.9983 10.4003 70.4792C10.1165 69.952 9.97451 69.3437 9.97451 68.6543C9.97451 67.973 10.1205 67.3728 10.4125 66.8537C10.7126 66.3265 11.1181 65.9251 11.6291 65.6493C12.1401 65.3654 12.7119 65.2235 13.3445 65.2235C13.9772 65.2235 14.549 65.3654 15.06 65.6493C15.5709 65.9251 15.9724 66.3225 16.2644 66.8416C16.5645 67.3607 16.7145 67.9649 16.7145 68.6543C16.7145 69.3437 16.5604 69.952 16.2522 70.4792C15.9521 70.9983 15.5425 71.3998 15.0235 71.6837C14.5044 71.9676 13.9285 72.1095 13.2959 72.1095ZM13.2959 71.1362C13.6933 71.1362 14.0664 71.0429 14.4151 70.8564C14.7639 70.6698 15.0437 70.39 15.2546 70.0169C15.4736 69.6438 15.5831 69.1896 15.5831 68.6543C15.5831 68.119 15.4777 67.6648 15.2668 67.2917C15.0559 66.9186 14.7801 66.6429 14.4395 66.4644C14.0988 66.2779 13.7298 66.1846 13.3324 66.1846C12.9268 66.1846 12.5537 66.2779 12.2131 66.4644C11.8805 66.6429 11.6129 66.9186 11.4101 67.2917C11.2073 67.6648 11.106 68.119 11.106 68.6543C11.106 69.1977 11.2033 69.656 11.398 70.0291C11.6007 70.4022 11.8684 70.682 12.2009 70.8686C12.5335 71.047 12.8984 71.1362 13.2959 71.1362ZM18.742 64.2502C18.5311 64.2502 18.3527 64.1772 18.2067 64.0312C18.0607 63.8852 17.9877 63.7068 17.9877 63.4959C17.9877 63.285 18.0607 63.1066 18.2067 62.9606C18.3527 62.8146 18.5311 62.7416 18.742 62.7416C18.9448 62.7416 19.1151 62.8146 19.253 62.9606C19.399 63.1066 19.472 63.285 19.472 63.4959C19.472 63.7068 19.399 63.8852 19.253 64.0312C19.1151 64.1772 18.9448 64.2502 18.742 64.2502ZM19.2773 65.333V72H18.1702V65.333H19.2773ZM24.4126 65.2113C25.2236 65.2113 25.8806 65.4587 26.3835 65.9534C26.8863 66.4401 27.1378 67.1457 27.1378 68.0703V72H26.0428V68.2285C26.0428 67.5634 25.8766 67.0565 25.544 66.7077C25.2115 66.3509 24.7573 66.1724 24.1814 66.1724C23.5974 66.1724 23.1311 66.3549 22.7823 66.7199C22.4417 67.0849 22.2713 67.6161 22.2713 68.3137V72H21.1642V65.333H22.2713V66.2819C22.4903 65.9413 22.7864 65.6777 23.1595 65.4911C23.5407 65.3046 23.9584 65.2113 24.4126 65.2113ZM36.6547 72L34.6351 68.5327H33.2969V72H32.1898V63.5202H34.9271C35.5679 63.5202 36.1072 63.6297 36.5452 63.8487C36.9913 64.0677 37.3239 64.3637 37.5428 64.7368C37.7618 65.1099 37.8713 65.5357 37.8713 66.0143C37.8713 66.5982 37.701 67.1133 37.3604 67.5594C37.0278 68.0055 36.5249 68.3015 35.8518 68.4475L37.9808 72H36.6547ZM33.2969 67.6445H34.9271C35.5273 67.6445 35.9775 67.4985 36.2776 67.2065C36.5777 66.9065 36.7277 66.509 36.7277 66.0143C36.7277 65.5114 36.5777 65.1221 36.2776 64.8463C35.9856 64.5706 35.5354 64.4327 34.9271 64.4327H33.2969V67.6445ZM43.4361 72.0852C42.6494 72.0852 41.9316 71.9027 41.2827 71.5377C40.6338 71.1646 40.1188 70.6496 39.7376 69.9926C39.3645 69.3275 39.178 68.5813 39.178 67.754C39.178 66.9267 39.3645 66.1846 39.7376 65.5276C40.1188 64.8625 40.6338 64.3475 41.2827 63.9825C41.9316 63.6094 42.6494 63.4229 43.4361 63.4229C44.231 63.4229 44.9528 63.6094 45.6017 63.9825C46.2505 64.3475 46.7615 64.8585 47.1346 65.5155C47.5077 66.1724 47.6942 66.9186 47.6942 67.754C47.6942 68.5894 47.5077 69.3356 47.1346 69.9926C46.7615 70.6496 46.2505 71.1646 45.6017 71.5377C44.9528 71.9027 44.231 72.0852 43.4361 72.0852ZM43.4361 71.124C44.0282 71.124 44.5594 70.9862 45.0299 70.7104C45.5084 70.4346 45.8815 70.0413 46.1491 69.5303C46.4249 69.0193 46.5628 68.4272 46.5628 67.754C46.5628 67.0727 46.4249 66.4806 46.1491 65.9778C45.8815 65.4668 45.5124 65.0734 45.042 64.7977C44.5716 64.5219 44.0363 64.384 43.4361 64.384C42.8359 64.384 42.3006 64.5219 41.8302 64.7977C41.3597 65.0734 40.9867 65.4668 40.7109 65.9778C40.4432 66.4806 40.3094 67.0727 40.3094 67.754C40.3094 68.4272 40.4432 69.0193 40.7109 69.5303C40.9867 70.0413 41.3597 70.4346 41.8302 70.7104C42.3087 70.9862 42.844 71.124 43.4361 71.124ZM51.8445 72.0852C51.2849 72.0852 50.782 71.9878 50.3359 71.7932C49.8979 71.5904 49.5532 71.3146 49.3018 70.9659C49.0503 70.609 48.9206 70.1994 48.9125 69.7371H50.0926C50.1331 70.1345 50.2953 70.4711 50.5792 70.7469C50.8712 71.0145 51.293 71.1484 51.8445 71.1484C52.3717 71.1484 52.7853 71.0186 53.0854 70.7591C53.3937 70.4914 53.5478 70.1507 53.5478 69.7371C53.5478 69.4127 53.4585 69.1491 53.2801 68.9463C53.1017 68.7435 52.8786 68.5894 52.611 68.484C52.3433 68.3786 51.9824 68.265 51.5282 68.1433C50.9685 67.9973 50.5184 67.8514 50.1777 67.7054C49.8452 67.5594 49.5573 67.3323 49.3139 67.0241C49.0787 66.7077 48.9611 66.286 48.9611 65.7588C48.9611 65.2965 49.0787 64.8869 49.3139 64.53C49.5492 64.1731 49.8776 63.8974 50.2994 63.7027C50.7293 63.508 51.22 63.4107 51.7715 63.4107C52.5664 63.4107 53.2152 63.6094 53.7181 64.0069C54.2291 64.4043 54.517 64.9315 54.5819 65.5885H53.3653C53.3247 65.264 53.1544 64.9801 52.8543 64.7368C52.5542 64.4854 52.1568 64.3597 51.662 64.3597C51.1997 64.3597 50.8225 64.4813 50.5306 64.7247C50.2386 64.9599 50.0926 65.2924 50.0926 65.7223C50.0926 66.0305 50.1777 66.2819 50.3481 66.4766C50.5265 66.6712 50.7414 66.8213 50.9929 66.9267C51.2524 67.0241 51.6133 67.1376 52.0757 67.2674C52.6353 67.4215 53.0854 67.5756 53.4261 67.7297C53.7667 67.8757 54.0587 68.1068 54.3021 68.4232C54.5454 68.7314 54.667 69.1531 54.667 69.6884C54.667 70.1021 54.5575 70.4914 54.3386 70.8564C54.1196 71.2214 53.7951 71.5174 53.3653 71.7445C52.9354 71.9716 52.4285 72.0852 51.8445 72.0852ZM55.8826 67.754C55.8826 66.9267 56.0692 66.1846 56.4423 65.5276C56.8153 64.8625 57.3223 64.3435 57.963 63.9704C58.6119 63.5973 59.3297 63.4107 60.1164 63.4107C61.041 63.4107 61.8481 63.6338 62.5375 64.0799C63.2269 64.5259 63.7298 65.1586 64.0461 65.9778H62.72C62.4848 65.4668 62.1441 65.0734 61.698 64.7977C61.26 64.5219 60.7328 64.384 60.1164 64.384C59.5243 64.384 58.9931 64.5219 58.5227 64.7977C58.0522 65.0734 57.6832 65.4668 57.4155 65.9778C57.1479 66.4806 57.0141 67.0727 57.0141 67.754C57.0141 68.4272 57.1479 69.0193 57.4155 69.5303C57.6832 70.0331 58.0522 70.4225 58.5227 70.6982C58.9931 70.974 59.5243 71.1119 60.1164 71.1119C60.7328 71.1119 61.26 70.978 61.698 70.7104C62.1441 70.4346 62.4848 70.0413 62.72 69.5303H64.0461C63.7298 70.3414 63.2269 70.9699 62.5375 71.416C61.8481 71.854 61.041 72.073 60.1164 72.073C59.3297 72.073 58.6119 71.8905 57.963 71.5255C57.3223 71.1524 56.8153 70.6374 56.4423 69.9804C56.0692 69.3235 55.8826 68.5813 55.8826 67.754ZM70.7066 70.1143H67.0081L66.3268 72H65.1588L68.2247 63.5689H69.5021L72.5558 72H71.3879L70.7066 70.1143ZM70.3902 69.214L68.8573 64.9315L67.3244 69.214H70.3902Z" fill="black"/>
</svg>

