<svg width="31" height="34" viewBox="0 0 31 34" fill="none" xmlns="http://www.w3.org/2000/svg">
<path d="M30.1145 6.50725L15.6527 0.076012C15.5463 0.0259541 15.4301 0 15.3125 0C15.1948 0 15.0786 0.0259541 14.9722 0.076012L0.510416 6.50725C0.360879 6.57248 0.233255 6.67934 0.142757 6.81509C0.0522587 6.95084 0.00270418 7.10975 0 7.27287V11.8326C0 20.2034 5.00207 30.3436 15.0062 33.8485C15.2048 33.9159 15.4201 33.9159 15.6187 33.8485C25.6229 30.3436 30.6249 20.2034 30.6249 11.8326V7.27287C30.6222 7.10975 30.5727 6.95084 30.4822 6.81509C30.3917 6.67934 30.264 6.57248 30.1145 6.50725ZM23.2886 12.1388L14.3052 23.5755C14.1747 23.7404 14.0108 23.8759 13.8244 23.9733C13.6379 24.0706 13.4331 24.1275 13.2232 24.1404L13.1347 24.1438C12.7391 24.1431 12.3599 23.9859 12.0798 23.7065L7.45206 19.0788C7.17298 18.799 7.01645 18.4198 7.01693 18.0247C7.01741 17.6295 7.17485 17.2507 7.45462 16.9716C7.73438 16.6925 8.11356 16.536 8.50873 16.5365C8.9039 16.537 9.28269 16.6944 9.56178 16.9742L13.002 20.4144L20.9474 10.2996C21.1958 10.002 21.5505 9.81279 21.936 9.77227C22.3216 9.73175 22.7078 9.84308 23.0126 10.0826C23.3175 10.3222 23.517 10.6711 23.5688 11.0553C23.6207 11.4395 23.5207 11.8288 23.2903 12.1405L23.2886 12.1388Z" fill="#066F5B"/>
</svg>
