<svg width="125" height="128" viewBox="0 0 125 128" fill="none" xmlns="http://www.w3.org/2000/svg">
<rect width="124.451" height="127.642" rx="11.7222" fill="#10B981" fill-opacity="0.25"/>
<path d="M87.1903 31.6866H37.2623C35.9382 31.6866 34.6682 32.2508 33.7319 33.2552C32.7956 34.2596 32.2695 35.6219 32.2695 37.0423V90.5997C32.2695 92.0202 32.7956 93.3824 33.7319 94.3868C34.6682 95.3912 35.9382 95.9555 37.2623 95.9555H87.1903C88.5145 95.9555 89.7844 95.3912 90.7208 94.3868C91.6571 93.3824 92.1831 92.0202 92.1831 90.5997V37.0423C92.1831 35.6219 91.6571 34.2596 90.7208 33.2552C89.7844 32.2508 88.5145 31.6866 87.1903 31.6866Z" stroke="#10B981" stroke-width="6.65706" stroke-linecap="round" stroke-linejoin="round"/>
<path d="M57.2338 76.3177L65.5552 83.4587L78.8693 65.6063M45.584 47.7538H78.8693M45.584 62.0358H58.8981" stroke="#10B981" stroke-width="6.65706" stroke-linecap="round" stroke-linejoin="round"/>
</svg>

