<svg width="64" height="194" viewBox="0 0 64 194" fill="none" xmlns="http://www.w3.org/2000/svg">
<path d="M49.0755 126.667L12.2309 157.285C1.63114 167.519 -5.52027 183.643 5.59505 193.315C8.30507 195.673 11.3936 197.634 14.6311 199.113C29.3458 205.836 47.1925 200.079 63.3464 200.957L91.1592 202.468C127.622 200.869 156.361 170.842 156.361 134.344V16.9205C156.361 7.57556 148.785 0 139.44 0C138.142 0 136.848 0.149385 135.584 0.445208L129.22 1.93465C101.455 8.43284 79.9512 30.3984 74.0437 58.295L65.6749 97.8143C64.0011 105.718 60.6225 113.162 55.7749 119.625C53.8243 122.226 51.5758 124.59 49.0755 126.667Z" fill="white" fill-opacity="0.3"/>
</svg>
