<svg width="75" height="88" viewBox="0 0 75 88" fill="none" xmlns="http://www.w3.org/2000/svg">
<rect width="75" height="88" rx="10" fill="white"/>
<rect x="20.5" y="12" width="34" height="34" rx="17" fill="#10B981"/>
<path d="M39.2972 34.2996C42.169 34.2996 44.4972 33.5833 44.4972 32.6996C44.4972 31.816 42.169 31.0996 39.2972 31.0996C36.4253 31.0996 34.0972 31.816 34.0972 32.6996C34.0972 33.5833 36.4253 34.2996 39.2972 34.2996Z" stroke="white" stroke-width="1.2" stroke-linecap="round" stroke-linejoin="round"/>
<path d="M44.4972 36.2998C44.4972 37.1838 42.1692 37.8998 39.2972 37.8998C36.4252 37.8998 34.0972 37.1838 34.0972 36.2998" stroke="white" stroke-width="1.2" stroke-linecap="round" stroke-linejoin="round"/>
<path d="M44.4972 32.7002V39.7402C44.4972 40.7122 42.1692 41.5002 39.2972 41.5002C36.4252 41.5002 34.0972 40.7122 34.0972 39.7402V32.7002" stroke="white" stroke-width="1.2" stroke-linecap="round" stroke-linejoin="round"/>
<path d="M33.7 28.7C36.5719 28.7 38.9 27.9837 38.9 27.1C38.9 26.2163 36.5719 25.5 33.7 25.5C30.8281 25.5 28.5 26.2163 28.5 27.1C28.5 27.9837 30.8281 28.7 33.7 28.7Z" stroke="white" stroke-width="1.2" stroke-linecap="round" stroke-linejoin="round"/>
<path d="M31.7 32.6996C30.1864 32.5156 28.796 32.0396 28.5 31.0996M31.7 36.6996C30.1864 36.5156 28.796 36.0396 28.5 35.0996" stroke="white" stroke-width="1.2" stroke-linecap="round" stroke-linejoin="round"/>
<path d="M31.7 40.6996C30.1864 40.5156 28.796 40.0388 28.5 39.0996V27.0996M38.9 28.6996V27.0996" stroke="white" stroke-width="1.2" stroke-linecap="round" stroke-linejoin="round"/>
<path d="M46.5 22.2143H42.2143V26.5H40.7857V22.2143H36.5V20.7857H40.7857V16.5H42.2143V20.7857H46.5V22.2143Z" fill="white"/>
<path d="M11.9492 70.1143H8.25073L7.56943 72H6.40148L9.46734 63.5689H10.7448L13.7985 72H12.6305L11.9492 70.1143ZM11.6329 69.214L10.1 64.9315L8.56705 69.214H11.6329ZM14.721 68.6422C14.721 67.9608 14.8589 67.3647 15.1347 66.8537C15.4104 66.3346 15.7876 65.9332 16.2661 65.6493C16.7528 65.3654 17.2962 65.2235 17.8964 65.2235C18.4155 65.2235 18.8981 65.3451 19.3441 65.5885C19.7902 65.8237 20.1309 66.1359 20.3661 66.5252V62.9971H21.4854V72H20.3661V70.7469C20.1471 71.1443 19.8227 71.4728 19.3928 71.7323C18.9629 71.9838 18.4601 72.1095 17.8842 72.1095C17.2921 72.1095 16.7528 71.9635 16.2661 71.6715C15.7876 71.3795 15.4104 70.9699 15.1347 70.4427C14.8589 69.9155 14.721 69.3153 14.721 68.6422ZM20.3661 68.6543C20.3661 68.1515 20.2647 67.7135 20.0619 67.3404C19.8592 66.9673 19.5834 66.6834 19.2346 66.4887C18.894 66.286 18.5168 66.1846 18.1032 66.1846C17.6896 66.1846 17.3124 66.2819 16.9717 66.4766C16.6311 66.6712 16.3594 66.9551 16.1566 67.3282C15.9539 67.7013 15.8525 68.1393 15.8525 68.6422C15.8525 69.1531 15.9539 69.5992 16.1566 69.9804C16.3594 70.3535 16.6311 70.6414 16.9717 70.8442C17.3124 71.0389 17.6896 71.1362 18.1032 71.1362C18.5168 71.1362 18.894 71.0389 19.2346 70.8442C19.5834 70.6414 19.8592 70.3535 20.0619 69.9804C20.2647 69.5992 20.3661 69.1572 20.3661 68.6543ZM22.9427 68.6422C22.9427 67.9608 23.0805 67.3647 23.3563 66.8537C23.6321 66.3346 24.0092 65.9332 24.4878 65.6493C24.9744 65.3654 25.5178 65.2235 26.118 65.2235C26.6371 65.2235 27.1197 65.3451 27.5658 65.5885C28.0119 65.8237 28.3525 66.1359 28.5877 66.5252V62.9971H29.707V72H28.5877V70.7469C28.3687 71.1443 28.0443 71.4728 27.6144 71.7323C27.1846 71.9838 26.6817 72.1095 26.1058 72.1095C25.5138 72.1095 24.9744 71.9635 24.4878 71.6715C24.0092 71.3795 23.6321 70.9699 23.3563 70.4427C23.0805 69.9155 22.9427 69.3153 22.9427 68.6422ZM28.5877 68.6543C28.5877 68.1515 28.4863 67.7135 28.2836 67.3404C28.0808 66.9673 27.805 66.6834 27.4563 66.4887C27.1156 66.286 26.7385 66.1846 26.3248 66.1846C25.9112 66.1846 25.534 66.2819 25.1934 66.4766C24.8527 66.6712 24.581 66.9551 24.3783 67.3282C24.1755 67.7013 24.0741 68.1393 24.0741 68.6422C24.0741 69.1531 24.1755 69.5992 24.3783 69.9804C24.581 70.3535 24.8527 70.6414 25.1934 70.8442C25.534 71.0389 25.9112 71.1362 26.3248 71.1362C26.7385 71.1362 27.1156 71.0389 27.4563 70.8442C27.805 70.6414 28.0808 70.3535 28.2836 69.9804C28.4863 69.5992 28.5877 69.1572 28.5877 68.6543ZM37.5345 66.2454H36.1354V72H35.0283V66.2454H34.1645V65.333H35.0283V64.8585C35.0283 64.1123 35.2189 63.5689 35.6001 63.2282C35.9894 62.8795 36.6099 62.7051 37.4615 62.7051V63.6297C36.9748 63.6297 36.6301 63.727 36.4274 63.9217C36.2327 64.1082 36.1354 64.4205 36.1354 64.8585V65.333H37.5345V66.2454ZM44.7381 65.333V72H43.631V71.0145C43.4201 71.3552 43.124 71.6229 42.7428 71.8175C42.3697 72.0041 41.9561 72.0973 41.5019 72.0973C40.9828 72.0973 40.5164 71.9919 40.1028 71.781C39.6891 71.562 39.3606 71.2376 39.1173 70.8077C38.8821 70.3779 38.7645 69.8547 38.7645 69.2383V65.333H39.8595V69.0923C39.8595 69.7493 40.0257 70.2562 40.3583 70.6131C40.6908 70.9618 41.145 71.1362 41.7209 71.1362C42.313 71.1362 42.7793 70.9537 43.12 70.5887C43.4606 70.2237 43.631 69.6925 43.631 68.995V65.333H44.7381ZM49.8557 65.2113C50.6668 65.2113 51.3238 65.4587 51.8266 65.9534C52.3295 66.4401 52.5809 67.1457 52.5809 68.0703V72H51.486V68.2285C51.486 67.5634 51.3197 67.0565 50.9872 66.7077C50.6546 66.3509 50.2004 66.1724 49.6246 66.1724C49.0406 66.1724 48.5742 66.3549 48.2255 66.7199C47.8848 67.0849 47.7145 67.6161 47.7145 68.3137V72H46.6074V65.333H47.7145V66.2819C47.9335 65.9413 48.2295 65.6777 48.6026 65.4911C48.9838 65.3046 49.4015 65.2113 49.8557 65.2113ZM53.9758 68.6422C53.9758 67.9608 54.1136 67.3647 54.3894 66.8537C54.6652 66.3346 55.0423 65.9332 55.5209 65.6493C56.0075 65.3654 56.5509 65.2235 57.1511 65.2235C57.6702 65.2235 58.1528 65.3451 58.5989 65.5885C59.045 65.8237 59.3856 66.1359 59.6208 66.5252V62.9971H60.7401V72H59.6208V70.7469C59.4019 71.1443 59.0774 71.4728 58.6476 71.7323C58.2177 71.9838 57.7148 72.1095 57.139 72.1095C56.5469 72.1095 56.0075 71.9635 55.5209 71.6715C55.0423 71.3795 54.6652 70.9699 54.3894 70.4427C54.1136 69.9155 53.9758 69.3153 53.9758 68.6422ZM59.6208 68.6543C59.6208 68.1515 59.5195 67.7135 59.3167 67.3404C59.1139 66.9673 58.8382 66.6834 58.4894 66.4887C58.1487 66.286 57.7716 66.1846 57.3579 66.1846C56.9443 66.1846 56.5671 66.2819 56.2265 66.4766C55.8858 66.6712 55.6141 66.9551 55.4114 67.3282C55.2086 67.7013 55.1072 68.1393 55.1072 68.6422C55.1072 69.1531 55.2086 69.5992 55.4114 69.9804C55.6141 70.3535 55.8858 70.6414 56.2265 70.8442C56.5671 71.0389 56.9443 71.1362 57.3579 71.1362C57.7716 71.1362 58.1487 71.0389 58.4894 70.8442C58.8382 70.6414 59.1139 70.3535 59.3167 69.9804C59.5195 69.5992 59.6208 69.1572 59.6208 68.6543ZM64.9713 72.1095C64.4603 72.1095 64.002 72.0243 63.5965 71.854C63.191 71.6756 62.8706 71.4322 62.6354 71.124C62.4002 70.8077 62.2704 70.4468 62.2461 70.0413H63.3897C63.4221 70.3738 63.5762 70.6455 63.852 70.8564C64.1359 71.0673 64.5049 71.1727 64.9591 71.1727C65.3809 71.1727 65.7134 71.0794 65.9567 70.8929C66.2001 70.7063 66.3217 70.4711 66.3217 70.1872C66.3217 69.8953 66.1919 69.6803 65.9324 69.5424C65.6729 69.3965 65.2714 69.2545 64.728 69.1166C64.2332 68.9869 63.8277 68.8571 63.5113 68.7273C63.2031 68.5894 62.9355 68.3907 62.7084 68.1312C62.4894 67.8635 62.3799 67.5148 62.3799 67.0849C62.3799 66.7442 62.4813 66.432 62.684 66.1481C62.8868 65.8642 63.1747 65.6412 63.5478 65.479C63.9209 65.3086 64.3468 65.2235 64.8253 65.2235C65.5634 65.2235 66.1595 65.41 66.6137 65.7831C67.0679 66.1562 67.3112 66.6672 67.3437 67.316H66.2366C66.2122 66.9673 66.0703 66.6875 65.8107 66.4766C65.5593 66.2657 65.2187 66.1603 64.7888 66.1603C64.3914 66.1603 64.075 66.2454 63.8398 66.4158C63.6046 66.5861 63.487 66.8091 63.487 67.0849C63.487 67.3039 63.556 67.4864 63.6938 67.6324C63.8398 67.7702 64.0183 67.8838 64.2291 67.973C64.4481 68.0541 64.7482 68.1474 65.1294 68.2528C65.608 68.3826 65.9973 68.5124 66.2974 68.6422C66.5975 68.7638 66.853 68.9504 67.0639 69.2018C67.2828 69.4532 67.3964 69.7817 67.4045 70.1872C67.4045 70.5522 67.3031 70.8807 67.1003 71.1727C66.8976 71.4647 66.6096 71.6958 66.2366 71.8662C65.8716 72.0284 65.4498 72.1095 64.9713 72.1095Z" fill="black"/>
</svg>
