<svg width="87" height="96" viewBox="0 0 87 96" fill="none" xmlns="http://www.w3.org/2000/svg">
<g filter="url(#filter0_d_11_2777)">
<rect x="4" width="79" height="88" rx="10" fill="white"/>
<rect x="26.5" y="12" width="34" height="34" rx="17" fill="#10B981"/>
<path d="M43.5 19C37.98 19 33.5 23.48 33.5 29C33.5 34.52 37.98 39 43.5 39C49.02 39 53.5 34.52 53.5 29C53.5 23.48 49.02 19 43.5 19ZM43.5 37C39.09 37 35.5 33.41 35.5 29C35.5 24.59 39.09 21 43.5 21C47.91 21 51.5 24.59 51.5 29C51.5 33.41 47.91 37 43.5 37ZM38 34.5L45.51 31.01L49 23.5L41.49 26.99L38 34.5ZM43.5 27.9C44.11 27.9 44.6 28.39 44.6 29C44.6 29.61 44.11 30.1 43.5 30.1C42.89 30.1 42.4 29.61 42.4 29C42.4 28.39 42.89 27.9 43.5 27.9Z" fill="white"/>
<path d="M22.0439 64.4205V67.2552H25.1341V68.1677H22.0439V71.0875H25.4991V72H20.9368V63.508H25.4991V64.4205H22.0439ZM30.6538 72L29.0722 69.5181L27.5515 72H26.3957L28.5491 68.6908L26.3957 65.333H27.6488L29.2304 67.8027L30.739 65.333H31.8948L29.7535 68.63L31.9069 72H30.6538ZM34.1031 66.5617C34.3221 66.1805 34.6465 65.8642 35.0764 65.6128C35.5144 65.3532 36.0213 65.2235 36.5972 65.2235C37.1892 65.2235 37.7245 65.3654 38.2031 65.6493C38.6897 65.9332 39.0709 66.3346 39.3467 66.8537C39.6225 67.3647 39.7603 67.9608 39.7603 68.6422C39.7603 69.3153 39.6225 69.9155 39.3467 70.4427C39.0709 70.9699 38.6897 71.3795 38.2031 71.6715C37.7245 71.9635 37.1892 72.1095 36.5972 72.1095C36.0294 72.1095 35.5265 71.9838 35.0886 71.7323C34.6587 71.4728 34.3302 71.1524 34.1031 70.7712V75.1632H32.996V65.333H34.1031V66.5617ZM38.6289 68.6422C38.6289 68.1393 38.5275 67.7013 38.3247 67.3282C38.122 66.9551 37.8462 66.6712 37.4974 66.4766C37.1568 66.2819 36.7796 66.1846 36.366 66.1846C35.9605 66.1846 35.5833 66.286 35.2345 66.4887C34.8939 66.6834 34.6181 66.9713 34.4073 67.3525C34.2045 67.7256 34.1031 68.1596 34.1031 68.6543C34.1031 69.1572 34.2045 69.5992 34.4073 69.9804C34.6181 70.3535 34.8939 70.6414 35.2345 70.8442C35.5833 71.0389 35.9605 71.1362 36.366 71.1362C36.7796 71.1362 37.1568 71.0389 37.4974 70.8442C37.8462 70.6414 38.122 70.3535 38.3247 69.9804C38.5275 69.5992 38.6289 69.1531 38.6289 68.6422ZM42.3247 62.9971V72H41.2176V62.9971H42.3247ZM47.1193 72.1095C46.4948 72.1095 45.927 71.9676 45.4161 71.6837C44.9132 71.3998 44.5158 70.9983 44.2238 70.4792C43.9399 69.952 43.798 69.3437 43.798 68.6543C43.798 67.973 43.944 67.3728 44.236 66.8537C44.5361 66.3265 44.9416 65.9251 45.4526 65.6493C45.9635 65.3654 46.5354 65.2235 47.168 65.2235C47.8006 65.2235 48.3724 65.3654 48.8834 65.6493C49.3944 65.9251 49.7959 66.3225 50.0879 66.8416C50.388 67.3607 50.538 67.9649 50.538 68.6543C50.538 69.3437 50.3839 69.952 50.0757 70.4792C49.7756 70.9983 49.366 71.3998 48.8469 71.6837C48.3278 71.9676 47.752 72.1095 47.1193 72.1095ZM47.1193 71.1362C47.5168 71.1362 47.8898 71.0429 48.2386 70.8564C48.5874 70.6698 48.8672 70.39 49.0781 70.0169C49.2971 69.6438 49.4066 69.1896 49.4066 68.6543C49.4066 68.119 49.3011 67.6648 49.0902 67.2917C48.8794 66.9186 48.6036 66.6429 48.2629 66.4644C47.9223 66.2779 47.5533 66.1846 47.1558 66.1846C46.7503 66.1846 46.3772 66.2779 46.0365 66.4644C45.704 66.6429 45.4363 66.9186 45.2336 67.2917C45.0308 67.6648 44.9294 68.119 44.9294 68.6543C44.9294 69.1977 45.0268 69.656 45.2214 70.0291C45.4242 70.4022 45.6918 70.682 46.0244 70.8686C46.3569 71.047 46.7219 71.1362 47.1193 71.1362ZM53.1008 66.4158C53.2954 66.0345 53.5712 65.7385 53.9281 65.5276C54.2931 65.3167 54.7351 65.2113 55.2542 65.2113V66.3549H54.9622C53.7213 66.3549 53.1008 67.0281 53.1008 68.3745V72H51.9937V65.333H53.1008V66.4158ZM62.6153 68.411C62.6153 68.6219 62.6031 68.8449 62.5788 69.0801H57.25C57.2906 69.7371 57.5136 70.2521 57.9191 70.6252C58.3328 70.9902 58.8316 71.1727 59.4156 71.1727C59.8941 71.1727 60.2915 71.0632 60.6078 70.8442C60.9323 70.6171 61.1594 70.317 61.2892 69.9439H62.4814C62.303 70.5847 61.9461 71.1078 61.4108 71.5134C60.8755 71.9108 60.2104 72.1095 59.4156 72.1095C58.7829 72.1095 58.2152 71.9676 57.7123 71.6837C57.2176 71.3998 56.8282 70.9983 56.5444 70.4792C56.2605 69.952 56.1185 69.3437 56.1185 68.6543C56.1185 67.9649 56.2564 67.3607 56.5322 66.8416C56.808 66.3225 57.1932 65.9251 57.688 65.6493C58.1908 65.3654 58.7667 65.2235 59.4156 65.2235C60.0482 65.2235 60.6078 65.3614 61.0945 65.6371C61.5811 65.9129 61.9542 66.2941 62.2138 66.7807C62.4814 67.2593 62.6153 67.8027 62.6153 68.411ZM61.4716 68.1798C61.4716 67.7581 61.3784 67.3972 61.1918 67.0971C61.0053 66.7888 60.7498 66.5577 60.4254 66.4036C60.109 66.2414 59.7562 66.1603 59.3669 66.1603C58.8073 66.1603 58.3287 66.3387 57.9313 66.6956C57.542 67.0524 57.3189 67.5472 57.2622 68.1798H61.4716Z" fill="black"/>
</g>
<defs>
<filter id="filter0_d_11_2777" x="0" y="0" width="87" height="96" filterUnits="userSpaceOnUse" color-interpolation-filters="sRGB">
<feFlood flood-opacity="0" result="BackgroundImageFix"/>
<feColorMatrix in="SourceAlpha" type="matrix" values="0 0 0 0 0 0 0 0 0 0 0 0 0 0 0 0 0 0 127 0" result="hardAlpha"/>
<feOffset dy="4"/>
<feGaussianBlur stdDeviation="2"/>
<feComposite in2="hardAlpha" operator="out"/>
<feColorMatrix type="matrix" values="0 0 0 0 0 0 0 0 0 0 0 0 0 0 0 0 0 0 0.25 0"/>
<feBlend mode="normal" in2="BackgroundImageFix" result="effect1_dropShadow_11_2777"/>
<feBlend mode="normal" in="SourceGraphic" in2="effect1_dropShadow_11_2777" result="shape"/>
</filter>
</defs>
</svg>
