<svg width="88" height="96" viewBox="0 0 88 96" fill="none" xmlns="http://www.w3.org/2000/svg">
<g filter="url(#filter0_d_11_2788)">
<rect x="4" width="80" height="88" rx="10" fill="white"/>
<rect x="27" y="12" width="34" height="34" rx="17" fill="#10B981"/>
<path d="M48 36C47.5333 36 47.0793 35.9543 46.638 35.863C46.1967 35.7717 45.7673 35.6423 45.35 35.475C46.3333 34.575 47.1043 33.571 47.663 32.463C48.2217 31.355 48.5007 30.2007 48.5 29C48.4993 27.7993 48.2203 26.645 47.663 25.537C47.1057 24.429 46.3347 23.425 45.35 22.525C45.7667 22.3583 46.196 22.2293 46.638 22.138C47.08 22.0467 47.534 22.0007 48 22C49.95 22 51.6043 22.6793 52.963 24.038C54.3217 25.3967 55.0007 27.0507 55 29C54.9993 30.9493 54.3203 32.6037 52.963 33.963C51.6057 35.3223 49.9513 36.0013 48 36ZM44 34.75C43.0833 34.1167 42.3543 33.3 41.813 32.3C41.2717 31.3 41.0007 30.2 41 29C40.9993 27.8 41.2703 26.7 41.813 25.7C42.3557 24.7 43.0847 23.8833 44 23.25C44.9167 23.8833 45.646 24.7 46.188 25.7C46.73 26.7 47.0007 27.8 47 29C46.9993 30.2 46.7287 31.3 46.188 32.3C45.6473 33.3 44.918 34.1167 44 34.75ZM40 36C38.05 36 36.396 35.321 35.038 33.963C33.68 32.605 33.0007 30.9507 33 29C32.9993 27.0493 33.6787 25.3953 35.038 24.038C36.3973 22.6807 38.0513 22.0013 40 22C40.4667 22 40.921 22.046 41.363 22.138C41.805 22.23 42.234 22.359 42.65 22.525C41.6667 23.425 40.896 24.4293 40.338 25.538C39.78 26.6467 39.5007 27.8007 39.5 29C39.5 30.3167 39.771 31.5377 40.313 32.663C40.855 33.7883 41.6007 34.7423 42.55 35.525C42.15 35.675 41.7377 35.7917 41.313 35.875C40.8883 35.9583 40.4507 36 40 36Z" fill="white"/>
<path d="M12.2071 63.5202V69.7858C12.2071 70.4833 11.9922 71.0429 11.5623 71.4647C11.1324 71.8783 10.5647 72.0852 9.85904 72.0852C9.14529 72.0852 8.57348 71.8743 8.14362 71.4525C7.71375 71.0227 7.49881 70.4387 7.49881 69.7006H8.60593C8.61404 70.1143 8.71948 70.4508 8.92225 70.7104C9.13313 70.9699 9.44539 71.0997 9.85904 71.0997C10.2727 71.0997 10.5809 70.978 10.7837 70.7347C10.9864 70.4833 11.0878 70.167 11.0878 69.7858V63.5202H12.2071ZM17.2959 72.1095C16.6713 72.1095 16.1036 71.9676 15.5926 71.6837C15.0897 71.3998 14.6923 70.9983 14.4003 70.4792C14.1165 69.952 13.9745 69.3437 13.9745 68.6543C13.9745 67.973 14.1205 67.3728 14.4125 66.8537C14.7126 66.3265 15.1181 65.9251 15.6291 65.6493C16.1401 65.3654 16.7119 65.2235 17.3445 65.2235C17.9772 65.2235 18.549 65.3654 19.06 65.6493C19.5709 65.9251 19.9724 66.3225 20.2644 66.8416C20.5645 67.3607 20.7145 67.9649 20.7145 68.6543C20.7145 69.3437 20.5604 69.952 20.2522 70.4792C19.9521 70.9983 19.5425 71.3998 19.0235 71.6837C18.5044 71.9676 17.9285 72.1095 17.2959 72.1095ZM17.2959 71.1362C17.6933 71.1362 18.0664 71.0429 18.4151 70.8564C18.7639 70.6698 19.0437 70.39 19.2546 70.0169C19.4736 69.6438 19.5831 69.1896 19.5831 68.6543C19.5831 68.119 19.4777 67.6648 19.2668 67.2917C19.0559 66.9186 18.7801 66.6429 18.4395 66.4644C18.0988 66.2779 17.7298 66.1846 17.3324 66.1846C16.9268 66.1846 16.5537 66.2779 16.2131 66.4644C15.8805 66.6429 15.6129 66.9186 15.4101 67.2917C15.2073 67.6648 15.106 68.119 15.106 68.6543C15.106 69.1977 15.2033 69.656 15.398 70.0291C15.6007 70.4022 15.8684 70.682 16.2009 70.8686C16.5335 71.047 16.8984 71.1362 17.2959 71.1362ZM22.742 64.2502C22.5311 64.2502 22.3527 64.1772 22.2067 64.0312C22.0607 63.8852 21.9877 63.7068 21.9877 63.4959C21.9877 63.285 22.0607 63.1066 22.2067 62.9606C22.3527 62.8146 22.5311 62.7416 22.742 62.7416C22.9448 62.7416 23.1151 62.8146 23.253 62.9606C23.399 63.1066 23.472 63.285 23.472 63.4959C23.472 63.7068 23.399 63.8852 23.253 64.0312C23.1151 64.1772 22.9448 64.2502 22.742 64.2502ZM23.2773 65.333V72H22.1702V65.333H23.2773ZM28.4126 65.2113C29.2236 65.2113 29.8806 65.4587 30.3835 65.9534C30.8863 66.4401 31.1378 67.1457 31.1378 68.0703V72H30.0428V68.2285C30.0428 67.5634 29.8766 67.0565 29.544 66.7077C29.2115 66.3509 28.7573 66.1724 28.1814 66.1724C27.5974 66.1724 27.1311 66.3549 26.7823 66.7199C26.4417 67.0849 26.2713 67.6161 26.2713 68.3137V72H25.1642V65.333H26.2713V66.2819C26.4903 65.9413 26.7864 65.6777 27.1595 65.4911C27.5407 65.3046 27.9584 65.2113 28.4126 65.2113ZM40.6547 72L38.6351 68.5327H37.2969V72H36.1898V63.5202H38.9271C39.5679 63.5202 40.1072 63.6297 40.5452 63.8487C40.9913 64.0677 41.3239 64.3637 41.5428 64.7368C41.7618 65.1099 41.8713 65.5357 41.8713 66.0143C41.8713 66.5982 41.701 67.1133 41.3604 67.5594C41.0278 68.0055 40.5249 68.3015 39.8518 68.4475L41.9808 72H40.6547ZM37.2969 67.6445H38.9271C39.5273 67.6445 39.9775 67.4985 40.2776 67.2065C40.5777 66.9065 40.7277 66.509 40.7277 66.0143C40.7277 65.5114 40.5777 65.1221 40.2776 64.8463C39.9856 64.5706 39.5354 64.4327 38.9271 64.4327H37.2969V67.6445ZM47.4361 72.0852C46.6494 72.0852 45.9316 71.9027 45.2827 71.5377C44.6338 71.1646 44.1188 70.6496 43.7376 69.9926C43.3645 69.3275 43.178 68.5813 43.178 67.754C43.178 66.9267 43.3645 66.1846 43.7376 65.5276C44.1188 64.8625 44.6338 64.3475 45.2827 63.9825C45.9316 63.6094 46.6494 63.4229 47.4361 63.4229C48.231 63.4229 48.9528 63.6094 49.6017 63.9825C50.2505 64.3475 50.7615 64.8585 51.1346 65.5155C51.5077 66.1724 51.6942 66.9186 51.6942 67.754C51.6942 68.5894 51.5077 69.3356 51.1346 69.9926C50.7615 70.6496 50.2505 71.1646 49.6017 71.5377C48.9528 71.9027 48.231 72.0852 47.4361 72.0852ZM47.4361 71.124C48.0282 71.124 48.5594 70.9862 49.0299 70.7104C49.5084 70.4346 49.8815 70.0413 50.1491 69.5303C50.4249 69.0193 50.5628 68.4272 50.5628 67.754C50.5628 67.0727 50.4249 66.4806 50.1491 65.9778C49.8815 65.4668 49.5124 65.0734 49.042 64.7977C48.5716 64.5219 48.0363 64.384 47.4361 64.384C46.8359 64.384 46.3006 64.5219 45.8302 64.7977C45.3597 65.0734 44.9867 65.4668 44.7109 65.9778C44.4432 66.4806 44.3094 67.0727 44.3094 67.754C44.3094 68.4272 44.4432 69.0193 44.7109 69.5303C44.9867 70.0413 45.3597 70.4346 45.8302 70.7104C46.3087 70.9862 46.844 71.124 47.4361 71.124ZM55.8445 72.0852C55.2849 72.0852 54.782 71.9878 54.3359 71.7932C53.8979 71.5904 53.5532 71.3146 53.3018 70.9659C53.0503 70.609 52.9206 70.1994 52.9125 69.7371H54.0926C54.1331 70.1345 54.2953 70.4711 54.5792 70.7469C54.8712 71.0145 55.293 71.1484 55.8445 71.1484C56.3717 71.1484 56.7853 71.0186 57.0854 70.7591C57.3937 70.4914 57.5478 70.1507 57.5478 69.7371C57.5478 69.4127 57.4585 69.1491 57.2801 68.9463C57.1017 68.7435 56.8786 68.5894 56.611 68.484C56.3433 68.3786 55.9824 68.265 55.5282 68.1433C54.9685 67.9973 54.5184 67.8514 54.1777 67.7054C53.8452 67.5594 53.5573 67.3323 53.3139 67.0241C53.0787 66.7077 52.9611 66.286 52.9611 65.7588C52.9611 65.2965 53.0787 64.8869 53.3139 64.53C53.5492 64.1731 53.8776 63.8974 54.2994 63.7027C54.7293 63.508 55.22 63.4107 55.7715 63.4107C56.5664 63.4107 57.2152 63.6094 57.7181 64.0069C58.2291 64.4043 58.517 64.9315 58.5819 65.5885H57.3653C57.3247 65.264 57.1544 64.9801 56.8543 64.7368C56.5542 64.4854 56.1568 64.3597 55.662 64.3597C55.1997 64.3597 54.8225 64.4813 54.5306 64.7247C54.2386 64.9599 54.0926 65.2924 54.0926 65.7223C54.0926 66.0305 54.1777 66.2819 54.3481 66.4766C54.5265 66.6712 54.7414 66.8213 54.9929 66.9267C55.2524 67.0241 55.6133 67.1376 56.0757 67.2674C56.6353 67.4215 57.0854 67.5756 57.4261 67.7297C57.7667 67.8757 58.0587 68.1068 58.3021 68.4232C58.5454 68.7314 58.667 69.1531 58.667 69.6884C58.667 70.1021 58.5575 70.4914 58.3386 70.8564C58.1196 71.2214 57.7951 71.5174 57.3653 71.7445C56.9354 71.9716 56.4285 72.0852 55.8445 72.0852ZM59.8826 67.754C59.8826 66.9267 60.0692 66.1846 60.4423 65.5276C60.8153 64.8625 61.3223 64.3435 61.963 63.9704C62.6119 63.5973 63.3297 63.4107 64.1164 63.4107C65.041 63.4107 65.8481 63.6338 66.5375 64.0799C67.2269 64.5259 67.7298 65.1586 68.0461 65.9778H66.72C66.4848 65.4668 66.1441 65.0734 65.698 64.7977C65.26 64.5219 64.7328 64.384 64.1164 64.384C63.5243 64.384 62.9931 64.5219 62.5227 64.7977C62.0522 65.0734 61.6832 65.4668 61.4155 65.9778C61.1479 66.4806 61.0141 67.0727 61.0141 67.754C61.0141 68.4272 61.1479 69.0193 61.4155 69.5303C61.6832 70.0331 62.0522 70.4225 62.5227 70.6982C62.9931 70.974 63.5243 71.1119 64.1164 71.1119C64.7328 71.1119 65.26 70.978 65.698 70.7104C66.1441 70.4346 66.4848 70.0413 66.72 69.5303H68.0461C67.7298 70.3414 67.2269 70.9699 66.5375 71.416C65.8481 71.854 65.041 72.073 64.1164 72.073C63.3297 72.073 62.6119 71.8905 61.963 71.5255C61.3223 71.1524 60.8153 70.6374 60.4423 69.9804C60.0692 69.3235 59.8826 68.5813 59.8826 67.754ZM74.7066 70.1143H71.0081L70.3268 72H69.1588L72.2247 63.5689H73.5021L76.5558 72H75.3879L74.7066 70.1143ZM74.3902 69.214L72.8573 64.9315L71.3244 69.214H74.3902Z" fill="black"/>
</g>
<defs>
<filter id="filter0_d_11_2788" x="0" y="0" width="88" height="96" filterUnits="userSpaceOnUse" color-interpolation-filters="sRGB">
<feFlood flood-opacity="0" result="BackgroundImageFix"/>
<feColorMatrix in="SourceAlpha" type="matrix" values="0 0 0 0 0 0 0 0 0 0 0 0 0 0 0 0 0 0 127 0" result="hardAlpha"/>
<feOffset dy="4"/>
<feGaussianBlur stdDeviation="2"/>
<feComposite in2="hardAlpha" operator="out"/>
<feColorMatrix type="matrix" values="0 0 0 0 0 0 0 0 0 0 0 0 0 0 0 0 0 0 0.25 0"/>
<feBlend mode="normal" in2="BackgroundImageFix" result="effect1_dropShadow_11_2788"/>
<feBlend mode="normal" in="SourceGraphic" in2="effect1_dropShadow_11_2788" result="shape"/>
</filter>
</defs>
</svg>
