<svg width="51" height="51" viewBox="0 0 51 51" fill="none" xmlns="http://www.w3.org/2000/svg">
<rect width="50.5386" height="50.5386" rx="25.2693" fill="#10B981"/>
<path d="M29.0336 32.2586C28.5318 32.2586 28.0437 32.2095 27.5691 32.1113C27.0945 32.0131 26.6329 31.874 26.1841 31.6941C27.2415 30.7263 28.0705 29.6468 28.6713 28.4553C29.272 27.2639 29.572 26.0227 29.5713 24.7316C29.5706 23.4405 29.2706 22.1993 28.6713 21.0079C28.072 19.8165 27.2429 18.7369 26.1841 17.7691C26.6322 17.5899 27.0938 17.4512 27.5691 17.353C28.0444 17.2548 28.5326 17.2053 29.0336 17.2046C31.1305 17.2046 32.9093 17.9351 34.3703 19.396C35.8313 20.857 36.5614 22.6355 36.5607 24.7316C36.5599 26.8277 35.8298 28.6066 34.3703 30.0683C32.9108 31.5299 31.1319 32.2601 29.0336 32.2586ZM24.7325 30.9145C23.7468 30.2335 22.9629 29.3554 22.3808 28.2801C21.7987 27.2048 21.5073 26.022 21.5066 24.7316C21.5059 23.4413 21.7973 22.2584 22.3808 21.1832C22.9643 20.1079 23.7482 19.2297 24.7325 18.5487C25.7182 19.2297 26.5024 20.1079 27.0852 21.1832C27.668 22.2584 27.9591 23.4413 27.9583 24.7316C27.9576 26.022 27.6666 27.2048 27.0852 28.2801C26.5038 29.3554 25.7196 30.2335 24.7325 30.9145ZM20.4313 32.2586C18.3345 32.2586 16.556 31.5285 15.0957 30.0683C13.6355 28.608 12.905 26.8291 12.9043 24.7316C12.9036 22.6341 13.6341 20.8556 15.0957 19.396C16.5574 17.9365 18.3359 17.206 20.4313 17.2046C20.9331 17.2046 21.4217 17.254 21.8969 17.353C22.3722 17.4519 22.8335 17.5906 23.2808 17.7691C22.2235 18.7369 21.3948 19.8168 20.7948 21.009C20.1948 22.2011 19.8944 23.442 19.8937 24.7316C19.8937 26.1474 20.1851 27.4603 20.7679 28.6704C21.3507 29.8805 22.1525 30.9063 23.1733 31.7479C22.7432 31.9092 22.2998 32.0346 21.8432 32.1242C21.3865 32.2138 20.9159 32.2586 20.4313 32.2586Z" fill="white"/>
</svg>
