<svg width="51" height="51" viewBox="0 0 51 51" fill="none" xmlns="http://www.w3.org/2000/svg">
<rect width="50.5386" height="50.5386" rx="25.2693" fill="#F59E0B"/>
<path d="M26.2683 33.7755L26.2597 33.7771L26.2043 33.8044L26.1887 33.8075L26.1778 33.8044L26.1225 33.7771C26.1142 33.7745 26.1079 33.7758 26.1038 33.781L26.1007 33.7888L26.0874 34.1224L26.0913 34.138L26.0991 34.1481L26.1802 34.2058L26.1919 34.2089L26.2012 34.2058L26.2823 34.1481L26.2916 34.1357L26.2948 34.1224L26.2815 33.7896C26.2794 33.7812 26.275 33.7766 26.2683 33.7755ZM26.4748 33.6874L26.4647 33.689L26.3205 33.7615L26.3127 33.7693L26.3103 33.7779L26.3244 34.1131L26.3283 34.1224L26.3345 34.1279L26.4912 34.2004C26.5011 34.203 26.5086 34.2009 26.5138 34.1941L26.5169 34.1832L26.4904 33.7046C26.4878 33.6952 26.4826 33.6895 26.4748 33.6874ZM25.9175 33.689C25.914 33.6869 25.9099 33.6862 25.906 33.6871C25.9021 33.688 25.8986 33.6903 25.8964 33.6937L25.8917 33.7046L25.8652 34.1832C25.8658 34.1926 25.8702 34.1988 25.8785 34.2019L25.8902 34.2004L26.0469 34.1279L26.0547 34.1216L26.0578 34.1131L26.071 33.7779L26.0687 33.7685L26.0609 33.7607L25.9175 33.689Z" fill="white"/>
<path d="M25.807 17.2046C26.0996 17.2046 26.388 17.2204 26.6723 17.2521C26.774 17.2634 26.8726 17.2946 26.9623 17.3439C27.052 17.3933 27.1311 17.4598 27.1951 17.5397C27.2591 17.6196 27.3067 17.7114 27.3352 17.8097C27.3637 17.908 27.3726 18.011 27.3614 18.1127C27.3501 18.2145 27.3189 18.313 27.2696 18.4027C27.2202 18.4924 27.1537 18.5715 27.0738 18.6355C26.9939 18.6995 26.9021 18.7471 26.8038 18.7757C26.7055 18.8042 26.6025 18.8131 26.5008 18.8018C25.2162 18.6581 23.9186 18.9172 22.7876 19.5431C21.6567 20.1691 20.7481 21.131 20.1877 22.2958C19.6274 23.4607 19.4428 24.7709 19.6596 26.0452C19.8763 27.3196 20.4838 28.4951 21.3978 29.4091C22.3118 30.3231 23.4873 30.9305 24.7616 31.1473C26.036 31.3641 27.3462 31.1795 28.511 30.6191C29.6759 30.0587 30.6378 29.1502 31.2638 28.0192C31.8897 26.8883 32.1487 25.5907 32.005 24.3061C31.9938 24.2043 32.0027 24.1014 32.0312 24.003C32.0597 23.9047 32.1074 23.813 32.1713 23.7331C32.3006 23.5717 32.4886 23.4682 32.6941 23.4455C32.8996 23.4228 33.1058 23.4826 33.2671 23.6118C33.3471 23.6758 33.4136 23.7549 33.4629 23.8446C33.5123 23.9343 33.5435 24.0328 33.5547 24.1346C33.5859 24.4189 33.6018 24.7073 33.6023 24.9999C33.6023 29.3052 30.1123 32.7952 25.807 32.7952C21.5017 32.7952 18.0117 29.3052 18.0117 24.9999C18.0117 20.6945 21.5017 17.2046 25.807 17.2046ZM25.7821 21.7859C25.8334 21.986 25.8033 22.1983 25.6982 22.3762C25.5931 22.5541 25.4216 22.683 25.2216 22.7346C24.6719 22.8786 24.1934 23.2176 23.8754 23.6885C23.5573 24.1593 23.4215 24.7298 23.4931 25.2935C23.5648 25.8572 23.8391 26.3755 24.2649 26.7518C24.6907 27.1281 25.2388 27.3366 25.807 27.3385C26.3256 27.3387 26.8296 27.1665 27.2397 26.849C27.6498 26.5315 27.9427 26.0867 28.0723 25.5845C28.1276 25.3884 28.2574 25.2216 28.4341 25.1201C28.6108 25.0185 28.8202 24.9901 29.0176 25.0411C29.2149 25.0921 29.3844 25.2183 29.4898 25.3927C29.5952 25.5671 29.6281 25.7759 29.5815 25.9743C29.3423 26.891 28.7777 27.6892 27.9929 28.2199C27.2082 28.7506 26.2571 28.9775 25.3173 28.8581C24.3775 28.7388 23.5133 28.2814 22.8861 27.5713C22.259 26.8613 21.9118 25.9472 21.9094 24.9999C21.9092 24.1357 22.1963 23.2959 22.7255 22.6127C23.2546 21.9295 23.9958 21.4414 24.8326 21.2254C24.9317 21.1998 25.0349 21.1941 25.1363 21.2084C25.2377 21.2227 25.3353 21.2569 25.4234 21.309C25.5116 21.361 25.5886 21.4299 25.6502 21.5117C25.7117 21.5936 25.7565 21.6867 25.7821 21.7859ZM30.8771 17.3036C31.0193 17.3626 31.141 17.4624 31.2266 17.5905C31.3122 17.7185 31.3579 17.8691 31.358 18.0231V19.4496H32.7838C32.9379 19.4497 33.0886 19.4954 33.2168 19.5811C33.3449 19.6667 33.4448 19.7884 33.5038 19.9309C33.5628 20.0733 33.5782 20.23 33.5482 20.3812C33.5181 20.5324 33.4439 20.6713 33.3349 20.7803L30.5777 23.5344C30.4316 23.6806 30.2333 23.7627 30.0266 23.7628H28.1456L26.7206 25.1885C26.5743 25.3348 26.376 25.417 26.1691 25.417C25.9622 25.417 25.7638 25.3348 25.6176 25.1885C25.4713 25.0422 25.3891 24.8439 25.3891 24.637C25.3891 24.4301 25.4713 24.2318 25.6176 24.0855L27.0433 22.6613V20.7795C27.0434 20.5728 27.1255 20.3745 27.2717 20.2284L30.0274 17.472C30.1364 17.3629 30.2753 17.2886 30.4265 17.2585C30.5778 17.2284 30.7346 17.2438 30.8771 17.3028M29.799 19.9041L28.6024 21.1022V22.2045H29.7046L30.902 21.0079H30.5785C30.3717 21.0079 30.1735 20.9258 30.0273 20.7796C29.8811 20.6334 29.799 20.4351 29.799 20.2284V19.9041Z" fill="white"/>
</svg>
