<svg width="378" height="104" viewBox="0 0 378 104" fill="none" xmlns="http://www.w3.org/2000/svg">
<path d="M17.6822 65.6863L3.02749 71.5075C-2.94354 73.8793 -6.86328 79.654 -6.86328 86.0788C-6.86328 94.5066 -0.200881 101.427 8.22083 101.746L378.194 115.79C426.968 117.642 464.051 72.4474 452.71 24.9737L451.096 18.2184C450.828 17.0941 450.692 15.9421 450.692 14.7862C450.692 4.36488 440.191 -2.77987 430.498 1.04553L405.377 10.9587C396.864 14.3183 391.269 22.5406 391.269 31.693C391.269 40.5468 386.029 48.5613 377.918 52.1122L366.327 57.187C361.237 59.4154 355.74 60.5658 350.184 60.5658C341.008 60.5658 332.108 57.4307 324.958 51.68L301.464 32.7843C295.598 28.0667 289.138 24.1417 282.248 21.1101L267.543 14.6402C256.655 9.84913 244.888 7.37499 232.992 7.37499H220.181C205.348 7.37499 190.768 11.2209 177.865 18.5372L101.088 62.0711C86.0578 70.5936 68.1572 72.4714 51.6854 67.2536L43.7961 64.7545C35.2443 62.0455 26.0191 62.3747 17.6822 65.6863Z" fill="white" fill-opacity="0.3"/>
</svg>
