<svg width="86" height="96" viewBox="0 0 86 96" fill="none" xmlns="http://www.w3.org/2000/svg">
<g filter="url(#filter0_d_11_2764)">
<rect x="4" width="78" height="88" rx="10" fill="white"/>
<rect x="26" y="12" width="34" height="34" rx="17" fill="#10B981"/>
<path d="M49.2411 30.7505L48.6381 27.4673C48.3771 26.0489 48.2466 25.3397 47.7309 24.9203C47.2152 24.5009 46.4736 24.5 44.9913 24.5H41.0079C39.5256 24.5 38.7849 24.5 38.2683 24.9203C37.7526 25.3397 37.6221 26.0489 37.3611 27.4673L36.7581 30.7505C36.2181 33.6944 35.9472 35.1668 36.7797 36.1325C37.6122 37.1 39.1512 37.1 42.2274 37.1H43.7718C46.848 37.1 48.387 37.1 49.2195 36.1334C50.052 35.1668 49.782 33.6944 49.2411 30.7514" stroke="white" stroke-width="1.35" stroke-linecap="round" stroke-linejoin="round"/>
<path d="M43 27.6504V33.5004M40.75 31.7004L43 33.9504L45.25 31.7004M51.1 28.1004C51.2391 28.031 51.3651 27.9382 51.4726 27.8259C52 27.2805 52 26.3994 52 24.6372C52 22.875 52 21.9948 51.4726 21.4476C50.9452 20.9004 50.0974 20.9004 48.4 20.9004H37.6C35.9026 20.9004 35.0548 20.9004 34.5274 21.4476C34 21.9948 34 22.8759 34 24.6372C34 26.3985 34 27.2796 34.5274 27.8259C34.6354 27.9387 34.7596 28.0302 34.9 28.1004" stroke="white" stroke-width="1.35" stroke-linecap="round" stroke-linejoin="round"/>
<path d="M24.5943 63.5202L22.1368 72H20.8958L18.9249 65.1748L16.881 72L15.6522 72.0122L13.2798 63.5202H14.4599L16.3092 70.7104L18.3531 63.5202H19.594L21.5406 70.6861L23.402 63.5202H24.5943ZM26.3777 64.2502C26.1668 64.2502 25.9884 64.1772 25.8424 64.0312C25.6964 63.8852 25.6234 63.7068 25.6234 63.4959C25.6234 63.285 25.6964 63.1066 25.8424 62.9606C25.9884 62.8146 26.1668 62.7416 26.3777 62.7416C26.5805 62.7416 26.7508 62.8146 26.8887 62.9606C27.0347 63.1066 27.1077 63.285 27.1077 63.4959C27.1077 63.7068 27.0347 63.8852 26.8887 64.0312C26.7508 64.1772 26.5805 64.2502 26.3777 64.2502ZM26.913 65.333V72H25.8059V65.333H26.913ZM30.1503 66.2454V70.1751C30.1503 70.4995 30.2193 70.7307 30.3572 70.8686C30.495 70.9983 30.7343 71.0632 31.075 71.0632H31.8901V72H30.8925C30.276 72 29.8137 71.8581 29.5055 71.5742C29.1973 71.2903 29.0432 70.8239 29.0432 70.1751V66.2454H28.1794V65.333H29.0432V63.654H30.1503V65.333H31.8901V66.2454H30.1503ZM36.5407 65.2113C37.0435 65.2113 37.4978 65.3208 37.9033 65.5398C38.3088 65.7507 38.6251 66.071 38.8522 66.5009C39.0875 66.9308 39.2051 67.4539 39.2051 68.0703V72H38.1101V68.2285C38.1101 67.5634 37.9438 67.0565 37.6113 66.7077C37.2788 66.3509 36.8246 66.1724 36.2487 66.1724C35.6647 66.1724 35.1984 66.3549 34.8496 66.7199C34.5089 67.0849 34.3386 67.6161 34.3386 68.3137V72H33.2315V62.9971H34.3386V66.2819C34.5576 65.9413 34.8577 65.6777 35.2389 65.4911C35.6282 65.3046 36.0621 65.2113 36.5407 65.2113ZM40.5999 68.6422C40.5999 67.9608 40.7378 67.3647 41.0135 66.8537C41.2893 66.3346 41.6665 65.9332 42.145 65.6493C42.6316 65.3654 43.1751 65.2235 43.7752 65.2235C44.2943 65.2235 44.7769 65.3451 45.223 65.5885C45.6691 65.8237 46.0098 66.1359 46.245 66.5252V62.9971H47.3643V72H46.245V70.7469C46.026 71.1443 45.7015 71.4728 45.2717 71.7323C44.8418 71.9838 44.3389 72.1095 43.7631 72.1095C43.171 72.1095 42.6316 71.9635 42.145 71.6715C41.6665 71.3795 41.2893 70.9699 41.0135 70.4427C40.7378 69.9155 40.5999 69.3153 40.5999 68.6422ZM46.245 68.6543C46.245 68.1515 46.1436 67.7135 45.9408 67.3404C45.738 66.9673 45.4623 66.6834 45.1135 66.4887C44.7729 66.286 44.3957 66.1846 43.9821 66.1846C43.5684 66.1846 43.1913 66.2819 42.8506 66.4766C42.51 66.6712 42.2383 66.9551 42.0355 67.3282C41.8327 67.7013 41.7313 68.1393 41.7313 68.6422C41.7313 69.1531 41.8327 69.5992 42.0355 69.9804C42.2383 70.3535 42.51 70.6414 42.8506 70.8442C43.1913 71.0389 43.5684 71.1362 43.9821 71.1362C44.3957 71.1362 44.7729 71.0389 45.1135 70.8442C45.4623 70.6414 45.738 70.3535 45.9408 69.9804C46.1436 69.5992 46.245 69.1572 46.245 68.6543ZM50.3423 66.4158C50.5369 66.0345 50.8127 65.7385 51.1696 65.5276C51.5346 65.3167 51.9766 65.2113 52.4957 65.2113V66.3549H52.2037C50.9628 66.3549 50.3423 67.0281 50.3423 68.3745V72H49.2352V65.333H50.3423V66.4158ZM53.3601 68.6422C53.3601 67.9608 53.4979 67.3647 53.7737 66.8537C54.0495 66.3346 54.4266 65.9332 54.9052 65.6493C55.3918 65.3654 55.9312 65.2235 56.5232 65.2235C57.1072 65.2235 57.6141 65.3492 58.044 65.6006C58.4739 65.8521 58.7943 66.1684 59.0051 66.5496V65.333H60.1244V72H59.0051V70.7591C58.7861 71.1484 58.4577 71.4728 58.0197 71.7323C57.5898 71.9838 57.0869 72.1095 56.5111 72.1095C55.919 72.1095 55.3837 71.9635 54.9052 71.6715C54.4266 71.3795 54.0495 70.9699 53.7737 70.4427C53.4979 69.9155 53.3601 69.3153 53.3601 68.6422ZM59.0051 68.6543C59.0051 68.1515 58.9038 67.7135 58.701 67.3404C58.4982 66.9673 58.2225 66.6834 57.8737 66.4887C57.533 66.286 57.1559 66.1846 56.7422 66.1846C56.3286 66.1846 55.9514 66.2819 55.6108 66.4766C55.2701 66.6712 54.9984 66.9551 54.7957 67.3282C54.5929 67.7013 54.4915 68.1393 54.4915 68.6422C54.4915 69.1531 54.5929 69.5992 54.7957 69.9804C54.9984 70.3535 55.2701 70.6414 55.6108 70.8442C55.9514 71.0389 56.3286 71.1362 56.7422 71.1362C57.1559 71.1362 57.533 71.0389 57.8737 70.8442C58.2225 70.6414 58.4982 70.3535 58.701 69.9804C58.9038 69.5992 59.0051 69.1572 59.0051 68.6543ZM70.8766 65.333L68.7962 72H67.6526L66.0467 66.7077L64.4407 72H63.2971L61.2045 65.333H62.336L63.8689 70.9294L65.5235 65.333H66.655L68.2731 70.9415L69.7817 65.333H70.8766Z" fill="black"/>
</g>
<defs>
<filter id="filter0_d_11_2764" x="0" y="0" width="86" height="96" filterUnits="userSpaceOnUse" color-interpolation-filters="sRGB">
<feFlood flood-opacity="0" result="BackgroundImageFix"/>
<feColorMatrix in="SourceAlpha" type="matrix" values="0 0 0 0 0 0 0 0 0 0 0 0 0 0 0 0 0 0 127 0" result="hardAlpha"/>
<feOffset dy="4"/>
<feGaussianBlur stdDeviation="2"/>
<feComposite in2="hardAlpha" operator="out"/>
<feColorMatrix type="matrix" values="0 0 0 0 0 0 0 0 0 0 0 0 0 0 0 0 0 0 0.25 0"/>
<feBlend mode="normal" in2="BackgroundImageFix" result="effect1_dropShadow_11_2764"/>
<feBlend mode="normal" in="SourceGraphic" in2="effect1_dropShadow_11_2764" result="shape"/>
</filter>
</defs>
</svg>

