<svg width="78" height="88" viewBox="0 0 78 88" fill="none" xmlns="http://www.w3.org/2000/svg">
<rect width="78" height="88" rx="10" fill="white"/>
<rect x="22" y="12" width="34" height="34" rx="17" fill="#10B981"/>
<path d="M45.2411 30.7505L44.6381 27.4673C44.3771 26.0489 44.2466 25.3397 43.7309 24.9203C43.2152 24.5009 42.4736 24.5 40.9913 24.5H37.0079C35.5256 24.5 34.7849 24.5 34.2683 24.9203C33.7526 25.3397 33.6221 26.0489 33.3611 27.4673L32.7581 30.7505C32.2181 33.6944 31.9472 35.1668 32.7797 36.1325C33.6122 37.1 35.1512 37.1 38.2274 37.1H39.7718C42.848 37.1 44.387 37.1 45.2195 36.1334C46.052 35.1668 45.782 33.6944 45.2411 30.7514" stroke="white" stroke-width="1.35" stroke-linecap="round" stroke-linejoin="round"/>
<path d="M39 27.6504V33.5004M36.75 31.7004L39 33.9504L41.25 31.7004M47.1 28.1004C47.2391 28.031 47.3651 27.9382 47.4726 27.8259C48 27.2805 48 26.3994 48 24.6372C48 22.875 48 21.9948 47.4726 21.4476C46.9452 20.9004 46.0974 20.9004 44.4 20.9004H33.6C31.9026 20.9004 31.0548 20.9004 30.5274 21.4476C30 21.9948 30 22.8759 30 24.6372C30 26.3985 30 27.2796 30.5274 27.8259C30.6354 27.9387 30.7596 28.0302 30.9 28.1004" stroke="white" stroke-width="1.35" stroke-linecap="round" stroke-linejoin="round"/>
<path d="M20.5943 63.5202L18.1368 72H16.8958L14.9249 65.1748L12.881 72L11.6522 72.0122L9.27982 63.5202H10.4599L12.3092 70.7104L14.3531 63.5202H15.594L17.5406 70.6861L19.402 63.5202H20.5943ZM22.3777 64.2502C22.1668 64.2502 21.9884 64.1772 21.8424 64.0312C21.6964 63.8852 21.6234 63.7068 21.6234 63.4959C21.6234 63.285 21.6964 63.1066 21.8424 62.9606C21.9884 62.8146 22.1668 62.7416 22.3777 62.7416C22.5805 62.7416 22.7508 62.8146 22.8887 62.9606C23.0347 63.1066 23.1077 63.285 23.1077 63.4959C23.1077 63.7068 23.0347 63.8852 22.8887 64.0312C22.7508 64.1772 22.5805 64.2502 22.3777 64.2502ZM22.913 65.333V72H21.8059V65.333H22.913ZM26.1503 66.2454V70.1751C26.1503 70.4995 26.2193 70.7307 26.3572 70.8686C26.495 70.9983 26.7343 71.0632 27.075 71.0632H27.8901V72H26.8925C26.276 72 25.8137 71.8581 25.5055 71.5742C25.1973 71.2903 25.0432 70.8239 25.0432 70.1751V66.2454H24.1794V65.333H25.0432V63.654H26.1503V65.333H27.8901V66.2454H26.1503ZM32.5407 65.2113C33.0435 65.2113 33.4978 65.3208 33.9033 65.5398C34.3088 65.7507 34.6251 66.071 34.8522 66.5009C35.0875 66.9308 35.2051 67.4539 35.2051 68.0703V72H34.1101V68.2285C34.1101 67.5634 33.9438 67.0565 33.6113 66.7077C33.2788 66.3509 32.8246 66.1724 32.2487 66.1724C31.6647 66.1724 31.1984 66.3549 30.8496 66.7199C30.5089 67.0849 30.3386 67.6161 30.3386 68.3137V72H29.2315V62.9971H30.3386V66.2819C30.5576 65.9413 30.8577 65.6777 31.2389 65.4911C31.6282 65.3046 32.0621 65.2113 32.5407 65.2113ZM36.5999 68.6422C36.5999 67.9608 36.7378 67.3647 37.0135 66.8537C37.2893 66.3346 37.6665 65.9332 38.145 65.6493C38.6316 65.3654 39.1751 65.2235 39.7752 65.2235C40.2943 65.2235 40.7769 65.3451 41.223 65.5885C41.6691 65.8237 42.0098 66.1359 42.245 66.5252V62.9971H43.3643V72H42.245V70.7469C42.026 71.1443 41.7015 71.4728 41.2717 71.7323C40.8418 71.9838 40.3389 72.1095 39.7631 72.1095C39.171 72.1095 38.6316 71.9635 38.145 71.6715C37.6665 71.3795 37.2893 70.9699 37.0135 70.4427C36.7378 69.9155 36.5999 69.3153 36.5999 68.6422ZM42.245 68.6543C42.245 68.1515 42.1436 67.7135 41.9408 67.3404C41.738 66.9673 41.4623 66.6834 41.1135 66.4887C40.7729 66.286 40.3957 66.1846 39.9821 66.1846C39.5684 66.1846 39.1913 66.2819 38.8506 66.4766C38.51 66.6712 38.2383 66.9551 38.0355 67.3282C37.8327 67.7013 37.7313 68.1393 37.7313 68.6422C37.7313 69.1531 37.8327 69.5992 38.0355 69.9804C38.2383 70.3535 38.51 70.6414 38.8506 70.8442C39.1913 71.0389 39.5684 71.1362 39.9821 71.1362C40.3957 71.1362 40.7729 71.0389 41.1135 70.8442C41.4623 70.6414 41.738 70.3535 41.9408 69.9804C42.1436 69.5992 42.245 69.1572 42.245 68.6543ZM46.3423 66.4158C46.5369 66.0345 46.8127 65.7385 47.1696 65.5276C47.5346 65.3167 47.9766 65.2113 48.4957 65.2113V66.3549H48.2037C46.9628 66.3549 46.3423 67.0281 46.3423 68.3745V72H45.2352V65.333H46.3423V66.4158ZM49.3601 68.6422C49.3601 67.9608 49.4979 67.3647 49.7737 66.8537C50.0495 66.3346 50.4266 65.9332 50.9052 65.6493C51.3918 65.3654 51.9312 65.2235 52.5232 65.2235C53.1072 65.2235 53.6141 65.3492 54.044 65.6006C54.4739 65.8521 54.7943 66.1684 55.0051 66.5496V65.333H56.1244V72H55.0051V70.7591C54.7861 71.1484 54.4577 71.4728 54.0197 71.7323C53.5898 71.9838 53.0869 72.1095 52.5111 72.1095C51.919 72.1095 51.3837 71.9635 50.9052 71.6715C50.4266 71.3795 50.0495 70.9699 49.7737 70.4427C49.4979 69.9155 49.3601 69.3153 49.3601 68.6422ZM55.0051 68.6543C55.0051 68.1515 54.9038 67.7135 54.701 67.3404C54.4982 66.9673 54.2225 66.6834 53.8737 66.4887C53.533 66.286 53.1559 66.1846 52.7422 66.1846C52.3286 66.1846 51.9514 66.2819 51.6108 66.4766C51.2701 66.6712 50.9984 66.9551 50.7957 67.3282C50.5929 67.7013 50.4915 68.1393 50.4915 68.6422C50.4915 69.1531 50.5929 69.5992 50.7957 69.9804C50.9984 70.3535 51.2701 70.6414 51.6108 70.8442C51.9514 71.0389 52.3286 71.1362 52.7422 71.1362C53.1559 71.1362 53.533 71.0389 53.8737 70.8442C54.2225 70.6414 54.4982 70.3535 54.701 69.9804C54.9038 69.5992 55.0051 69.1572 55.0051 68.6543ZM66.8766 65.333L64.7962 72H63.6526L62.0467 66.7077L60.4407 72H59.2971L57.2045 65.333H58.336L59.8689 70.9294L61.5235 65.333H62.655L64.2731 70.9415L65.7817 65.333H66.8766Z" fill="black"/>
</svg>
